<svg xmlns="http://www.w3.org/2000/svg" xmlns:xlink="http://www.w3.org/1999/xlink" width="500" zoomAndPan="magnify" viewBox="0 0 375 374.999991" height="500" preserveAspectRatio="xMidYMid meet" version="1.0"><defs><clipPath id="92973c44de"><path d="M 38 68.25 L 189 68.25 L 189 147 L 38 147 Z M 38 68.25 " clip-rule="nonzero"/></clipPath><clipPath id="9f01e45496"><path d="M 185 68.25 L 335 68.25 L 335 147 L 185 147 Z M 185 68.25 " clip-rule="nonzero"/></clipPath><clipPath id="7767132a0a"><path d="M 37.5 81 L 337.5 81 L 337.5 299 L 37.5 299 Z M 37.5 81 " clip-rule="nonzero"/></clipPath><clipPath id="9238034274"><path d="M 167 112 L 206 112 L 206 306.75 L 167 306.75 Z M 167 112 " clip-rule="nonzero"/></clipPath></defs><path fill="#f6f6f6" d="M 46.125 104.027344 L 40.074219 87.855469 L 64.753906 69.390625 L 65.226562 69.5 C 65.425781 69.550781 85.417969 74.242188 92.214844 75.027344 C 93.511719 75.175781 95.03125 75.347656 96.746094 75.542969 C 136.269531 79.949219 182.261719 86.636719 187.171875 99.316406 L 187.242188 99.503906 L 187.242188 144.875 L 46.125 104.027344 " fill-opacity="1" fill-rule="nonzero"/><g clip-path="url(#92973c44de)"><path fill="#000000" d="M 64.515625 68.265625 L 63.738281 68.847656 L 40.074219 86.550781 L 38.824219 87.488281 L 39.371094 88.953125 L 44.960938 103.902344 L 45.328125 104.886719 L 46.335938 105.175781 L 185.617188 145.492188 L 188.28125 146.265625 L 188.28125 99.308594 L 188.144531 98.945312 C 183.0625 85.816406 139.148438 79.222656 96.863281 74.503906 C 95.148438 74.3125 93.628906 74.140625 92.339844 73.992188 C 85.597656 73.210938 65.667969 68.535156 65.464844 68.488281 Z M 64.988281 70.519531 C 64.988281 70.519531 85.15625 75.261719 92.097656 76.066406 C 111.242188 78.277344 180.503906 84.984375 186.195312 99.695312 L 186.195312 143.488281 L 46.914062 103.171875 L 41.324219 88.222656 L 64.988281 70.519531 " fill-opacity="1" fill-rule="nonzero"/></g><path fill="#f6f6f6" d="M 186.457031 99.503906 L 186.527344 99.316406 C 191.4375 86.636719 237.429688 79.949219 276.953125 75.542969 C 278.667969 75.347656 280.1875 75.175781 281.480469 75.027344 C 288.28125 74.242188 308.269531 69.550781 308.472656 69.5 L 308.945312 69.390625 L 333.625 87.855469 L 327.574219 104.027344 L 186.457031 144.875 L 186.457031 99.503906 " fill-opacity="1" fill-rule="nonzero"/><g clip-path="url(#9f01e45496)"><path fill="#000000" d="M 309.179688 68.265625 L 308.234375 68.488281 C 308.03125 68.535156 288.101562 73.210938 281.359375 73.992188 C 280.070312 74.140625 278.546875 74.3125 276.832031 74.503906 C 234.546875 79.222656 190.636719 85.816406 185.554688 98.945312 L 185.414062 99.308594 L 185.414062 146.265625 L 188.082031 145.492188 L 327.363281 105.175781 L 328.367188 104.886719 L 328.738281 103.902344 L 334.328125 88.953125 L 334.875 87.488281 L 333.625 86.550781 L 309.957031 68.847656 Z M 308.707031 70.519531 L 332.375 88.222656 L 326.78125 103.171875 L 187.5 143.488281 L 187.5 99.695312 C 193.195312 84.984375 262.457031 78.277344 281.597656 76.066406 C 288.539062 75.261719 308.707031 70.519531 308.707031 70.519531 " fill-opacity="1" fill-rule="nonzero"/></g><path fill="#575757" d="M 185.675781 296.992188 C 177.976562 296.992188 173.003906 295.175781 170.53125 291.441406 C 169.804688 291.753906 169.015625 291.917969 168.1875 291.917969 C 167.765625 291.917969 167.335938 291.878906 166.902344 291.789062 L 54.261719 269.609375 C 50.621094 268.890625 47.53125 265.296875 47.371094 261.589844 L 38.925781 93.839844 C 38.816406 91.445312 39.855469 87.773438 41.769531 85.777344 C 42.664062 84.839844 43.699219 84.347656 44.757812 84.347656 C 44.984375 84.347656 45.21875 84.367188 45.445312 84.414062 L 167.304688 108.40625 C 168.390625 108.621094 169.425781 109.082031 170.390625 109.789062 C 170.414062 109.796875 177.089844 114.082031 185.769531 114.082031 L 185.773438 114.082031 C 191.21875 114.082031 196.304688 112.414062 200.894531 109.132812 C 202.070312 107.921875 203.554688 107.089844 205.085938 106.789062 L 326.953125 82.792969 C 327.136719 82.757812 327.324219 82.738281 327.515625 82.738281 C 328.742188 82.738281 330.070312 83.46875 331.453125 84.917969 C 334.023438 87.601562 336.183594 92.089844 336.082031 94.527344 L 325.027344 259.992188 C 324.867188 263.675781 321.773438 267.273438 318.128906 267.988281 L 205.492188 290.171875 C 205.0625 290.257812 204.628906 290.296875 204.203125 290.296875 C 203.3125 290.296875 202.472656 290.117188 201.714844 289.761719 C 199.722656 294.621094 194.457031 296.992188 185.675781 296.992188 " fill-opacity="1" fill-rule="nonzero"/><g clip-path="url(#7767132a0a)"><path fill="#000000" d="M 327.515625 81.695312 C 327.257812 81.695312 327 81.71875 326.75 81.769531 L 204.886719 105.761719 C 203.175781 106.105469 201.523438 107.015625 200.210938 108.335938 C 195.824219 111.457031 190.96875 113.039062 185.769531 113.039062 C 177.742188 113.039062 171.46875 109.226562 170.949219 108.902344 C 169.878906 108.132812 168.722656 107.621094 167.507812 107.382812 L 45.644531 83.390625 C 45.351562 83.332031 45.054688 83.300781 44.757812 83.300781 C 43.820312 83.300781 42.402344 83.609375 41.015625 85.054688 C 38.828125 87.339844 37.769531 91.308594 37.878906 93.878906 L 46.328125 261.648438 C 46.507812 265.859375 49.90625 269.816406 54.0625 270.632812 L 166.699219 292.8125 C 167.199219 292.910156 167.699219 292.960938 168.1875 292.960938 C 168.863281 292.960938 169.519531 292.871094 170.140625 292.6875 C 172.941406 296.28125 178.050781 298.035156 185.675781 298.035156 C 189.035156 298.035156 198.625 298.035156 202.253906 291.074219 C 202.875 291.25 203.527344 291.34375 204.203125 291.34375 C 204.695312 291.34375 205.195312 291.289062 205.691406 291.191406 L 318.332031 269.011719 C 322.476562 268.199219 325.871094 264.257812 326.066406 260.035156 L 337.121094 94.621094 L 337.121094 94.574219 C 337.25 91.570312 334.6875 86.785156 332.207031 84.195312 C 330.617188 82.535156 329.042969 81.695312 327.515625 81.695312 M 327.515625 83.78125 C 330.695312 83.78125 335.171875 91.355469 335.039062 94.484375 L 323.984375 259.921875 C 323.847656 263.167969 321.121094 266.339844 317.929688 266.964844 L 205.289062 289.148438 C 204.917969 289.222656 204.554688 289.257812 204.203125 289.257812 C 203.019531 289.257812 201.964844 288.859375 201.152344 288.175781 C 199.519531 294.21875 193.21875 295.949219 185.675781 295.949219 C 178.976562 295.949219 173.257812 294.585938 170.917969 290.042969 C 170.152344 290.574219 169.21875 290.878906 168.1875 290.878906 C 167.835938 290.878906 167.472656 290.839844 167.105469 290.765625 L 54.464844 268.585938 C 51.273438 267.957031 48.550781 264.789062 48.410156 261.542969 L 39.964844 93.792969 C 39.832031 90.710938 41.832031 85.390625 44.757812 85.390625 C 44.917969 85.390625 45.078125 85.402344 45.242188 85.433594 L 167.105469 109.429688 C 168.066406 109.617188 168.976562 110.042969 169.773438 110.628906 C 169.773438 110.628906 176.652344 115.121094 185.769531 115.121094 C 190.636719 115.121094 196.132812 113.84375 201.578125 109.921875 C 202.585938 108.863281 203.882812 108.089844 205.289062 107.808594 L 327.152344 83.816406 C 327.273438 83.792969 327.394531 83.78125 327.515625 83.78125 " fill-opacity="1" fill-rule="nonzero"/></g><path fill="#575757" d="M 168.71875 299.566406 C 168.292969 299.566406 167.859375 299.519531 167.425781 299.4375 L 54.785156 277.257812 C 51.144531 276.542969 48.050781 272.941406 47.890625 269.230469 L 39.179688 97.898438 C 39.105469 96.203125 39.648438 94.667969 40.699219 93.566406 C 41.707031 92.511719 43.121094 91.933594 44.671875 91.933594 C 45.097656 91.933594 45.53125 91.972656 45.964844 92.058594 L 167.828125 116.050781 C 171.488281 116.773438 174.46875 120.398438 174.46875 124.128906 L 174.46875 293.640625 C 174.46875 297.019531 171.996094 299.566406 168.71875 299.566406 " fill-opacity="1" fill-rule="nonzero"/><path fill="#000000" d="M 44.671875 90.886719 C 42.832031 90.886719 41.152344 91.582031 39.945312 92.84375 C 38.691406 94.152344 38.050781 95.960938 38.136719 97.9375 L 46.847656 269.292969 C 47.035156 273.507812 50.429688 277.460938 54.585938 278.28125 L 167.222656 300.460938 C 167.722656 300.558594 168.226562 300.605469 168.71875 300.605469 C 172.589844 300.605469 175.507812 297.613281 175.507812 293.640625 L 175.507812 124.128906 C 175.507812 119.855469 172.226562 115.859375 168.027344 115.027344 L 46.164062 91.035156 C 45.664062 90.9375 45.164062 90.886719 44.671875 90.886719 M 44.671875 92.972656 C 45.023438 92.972656 45.386719 93.007812 45.761719 93.082031 L 167.625 117.078125 C 170.816406 117.703125 173.425781 120.878906 173.425781 124.128906 L 173.425781 293.640625 C 173.425781 296.511719 171.390625 298.519531 168.71875 298.519531 C 168.367188 298.519531 167.996094 298.484375 167.625 298.414062 L 54.984375 276.234375 C 51.800781 275.605469 49.074219 272.433594 48.933594 269.1875 L 40.21875 97.847656 C 40.09375 94.980469 42.023438 92.972656 44.671875 92.972656 " fill-opacity="1" fill-rule="nonzero"/><path fill="#000000" d="M 168.71875 298.519531 C 168.367188 298.519531 167.996094 298.484375 167.625 298.414062 L 54.984375 276.234375 C 51.800781 275.605469 49.074219 272.433594 48.933594 269.1875 L 42.890625 150.316406 C 60.109375 192.742188 98.941406 260.835938 170.777344 260.835938 C 171.652344 260.835938 172.539062 260.824219 173.425781 260.808594 L 173.425781 293.640625 C 173.425781 295.109375 172.890625 296.355469 172.011719 297.21875 C 171.175781 298.042969 170.023438 298.519531 168.71875 298.519531 " fill-opacity="1" fill-rule="nonzero"/><path fill="#000000" d="M 167.625 298.414062 L 54.984375 276.234375 C 51.800781 275.605469 49.074219 272.433594 48.933594 269.1875 C 49.074219 272.433594 51.800781 275.605469 54.984375 276.234375 L 167.625 298.414062 M 172.011719 297.21875 C 172.890625 296.355469 173.425781 295.109375 173.425781 293.640625 L 173.425781 260.808594 L 173.425781 293.640625 C 173.425781 295.109375 172.890625 296.355469 172.011719 297.21875 " fill-opacity="1" fill-rule="nonzero"/><path fill="#575757" d="M 204.71875 297.945312 C 201.441406 297.945312 198.96875 295.398438 198.96875 292.023438 L 198.96875 122.507812 C 198.96875 118.78125 201.949219 115.15625 205.609375 114.429688 L 327.472656 90.4375 C 327.90625 90.351562 328.34375 90.3125 328.765625 90.3125 C 330.320312 90.3125 331.730469 90.890625 332.738281 91.941406 C 333.792969 93.046875 334.332031 94.582031 334.257812 96.269531 L 325.546875 267.621094 C 325.386719 271.320312 322.292969 274.921875 318.652344 275.636719 L 206.011719 297.816406 C 205.578125 297.902344 205.144531 297.945312 204.71875 297.945312 " fill-opacity="1" fill-rule="nonzero"/><path fill="#000000" d="M 328.765625 89.265625 C 328.273438 89.265625 327.773438 89.316406 327.273438 89.414062 L 205.410156 113.410156 C 201.210938 114.238281 197.929688 118.234375 197.929688 122.507812 L 197.929688 292.023438 C 197.929688 295.992188 200.847656 298.984375 204.71875 298.984375 C 205.210938 298.984375 205.714844 298.9375 206.214844 298.839844 L 318.855469 276.660156 C 323.007812 275.839844 326.40625 271.886719 326.589844 267.660156 L 335.300781 96.328125 C 335.386719 94.335938 334.746094 92.53125 333.492188 91.222656 C 332.285156 89.964844 330.609375 89.265625 328.765625 89.265625 M 328.765625 91.351562 C 331.414062 91.351562 333.34375 93.355469 333.21875 96.226562 L 324.503906 267.566406 C 324.367188 270.8125 321.640625 273.988281 318.453125 274.617188 L 205.8125 296.796875 C 205.441406 296.867188 205.070312 296.902344 204.71875 296.902344 C 202.046875 296.902344 200.015625 294.894531 200.015625 292.023438 L 200.015625 122.507812 C 200.015625 119.257812 202.621094 116.082031 205.8125 115.457031 L 327.675781 91.460938 C 328.050781 91.386719 328.414062 91.351562 328.765625 91.351562 " fill-opacity="1" fill-rule="nonzero"/><path fill="#000000" d="M 204.71875 296.902344 C 202.199219 296.902344 200.242188 295.117188 200.03125 292.5 C 200.03125 292.480469 200.027344 292.464844 200.027344 292.441406 C 200.023438 292.421875 200.023438 292.402344 200.023438 292.378906 C 200.023438 292.375 200.023438 292.375 200.023438 292.371094 C 200.015625 292.253906 200.015625 292.140625 200.015625 292.023438 L 200.015625 259.257812 C 216.472656 253.480469 282.71875 226.949219 329.953125 160.433594 L 324.503906 267.566406 C 324.367188 270.8125 321.640625 273.988281 318.453125 274.617188 L 205.8125 296.796875 C 205.441406 296.867188 205.070312 296.902344 204.71875 296.902344 " fill-opacity="1" fill-rule="nonzero"/><path fill="#000000" d="M 205.8125 296.796875 L 318.453125 274.617188 C 321.640625 273.988281 324.367188 270.8125 324.503906 267.566406 L 329.953125 160.433594 L 324.503906 267.566406 C 324.367188 270.8125 321.640625 273.988281 318.453125 274.617188 L 205.8125 296.796875 M 200.03125 292.5 C 200.03125 292.480469 200.027344 292.464844 200.027344 292.441406 C 200.027344 292.464844 200.03125 292.480469 200.03125 292.5 M 200.023438 292.378906 C 200.023438 292.375 200.023438 292.375 200.023438 292.371094 C 200.023438 292.375 200.023438 292.375 200.023438 292.378906 " fill-opacity="1" fill-rule="nonzero"/><path fill="#575757" d="M 186.195312 305.160156 C 174.609375 305.160156 168.734375 300.894531 168.734375 292.484375 L 168.734375 116.078125 C 168.734375 115.460938 169.09375 114.902344 169.652344 114.648438 C 169.859375 114.558594 170.078125 114.515625 170.296875 114.515625 C 170.671875 114.515625 171.039062 114.648438 171.328125 114.902344 C 171.375 114.941406 176.390625 119.203125 185.050781 119.203125 C 190.261719 119.203125 195.75 117.6875 201.363281 114.699219 C 201.59375 114.574219 201.847656 114.515625 202.097656 114.515625 C 202.378906 114.515625 202.65625 114.585938 202.902344 114.738281 C 203.375 115.019531 203.664062 115.527344 203.664062 116.078125 L 203.664062 292.484375 C 203.664062 300.894531 197.785156 305.160156 186.195312 305.160156 " fill-opacity="1" fill-rule="nonzero"/><g clip-path="url(#9238034274)"><path fill="#000000" d="M 170.296875 112.949219 C 169.859375 112.949219 169.421875 113.039062 169.007812 113.226562 C 167.890625 113.734375 167.167969 114.847656 167.167969 116.078125 L 167.167969 292.484375 C 167.167969 298.980469 170.46875 306.722656 186.195312 306.722656 C 201.925781 306.722656 205.226562 298.980469 205.226562 292.484375 L 205.226562 116.078125 C 205.226562 114.976562 204.648438 113.960938 203.707031 113.394531 C 203.214844 113.097656 202.65625 112.949219 202.097656 112.949219 C 201.59375 112.949219 201.085938 113.070312 200.625 113.316406 C 195.242188 116.1875 190 117.640625 185.050781 117.640625 C 177.03125 117.640625 172.410156 113.769531 172.363281 113.726562 C 171.78125 113.214844 171.042969 112.949219 170.296875 112.949219 Z M 202.097656 116.078125 L 202.097656 292.484375 C 202.097656 301.269531 194.980469 303.59375 186.195312 303.59375 C 177.417969 303.59375 170.296875 301.269531 170.296875 292.484375 L 170.296875 116.078125 C 170.296875 116.078125 175.625 120.769531 185.050781 120.769531 C 189.761719 120.769531 195.496094 119.597656 202.097656 116.078125 " fill-opacity="1" fill-rule="nonzero"/></g></svg>