<svg xmlns="http://www.w3.org/2000/svg" xmlns:xlink="http://www.w3.org/1999/xlink" width="500" zoomAndPan="magnify" viewBox="0 0 375 374.999991" height="500" preserveAspectRatio="xMidYMid meet" version="1.0"><defs><clipPath id="4bfdeecffb"><path d="M 70 65 L 307 65 L 307 311.339844 L 70 311.339844 Z M 70 65 " clip-rule="nonzero"/></clipPath></defs><g clip-path="url(#4bfdeecffb)"><path fill="#000000" d="M 267.851562 110.210938 C 264.09375 98.449219 249.820312 91.808594 242.515625 89.058594 C 242.566406 88.5625 242.566406 88.070312 242.515625 87.574219 C 241.039062 80.933594 230.144531 77.335938 227.988281 76.703125 C 226.636719 76.28125 225.921875 75.347656 224.570312 73.488281 C 223.542969 71.910156 222.3125 70.515625 220.875 69.304688 C 219.433594 68.09375 217.851562 67.117188 216.121094 66.378906 C 210.210938 63.925781 201.089844 72.050781 188.421875 90.539062 C 175.753906 72.089844 166.460938 63.925781 160.550781 66.421875 C 158.820312 67.160156 157.238281 68.136719 155.796875 69.347656 C 154.359375 70.558594 153.128906 71.953125 152.105469 73.53125 C 150.753906 75.390625 150.035156 76.324219 148.683594 76.746094 C 146.53125 77.378906 135.632812 80.976562 134.15625 87.617188 C 134.109375 88.113281 134.109375 88.605469 134.15625 89.097656 C 126.851562 91.808594 112.578125 98.449219 108.820312 110.253906 L 107.128906 115.414062 C 65.957031 241.40625 68.238281 262.09375 72.546875 267.339844 L 72.546875 278.679688 C 72.554688 279.453125 72.761719 280.167969 73.160156 280.828125 C 73.5625 281.488281 74.101562 281.996094 74.78125 282.359375 C 75.628906 282.785156 82.214844 285.828125 97.542969 285.828125 C 102.246094 285.816406 106.933594 285.5625 111.605469 285.070312 C 112.035156 285.015625 112.441406 284.898438 112.835938 284.722656 C 113.226562 284.542969 113.582031 284.3125 113.902344 284.023438 C 114.222656 283.734375 114.496094 283.40625 114.714844 283.039062 C 114.9375 282.667969 115.097656 282.273438 115.195312 281.851562 L 118.449219 266.578125 C 119.714844 262.898438 123.09375 248.132812 126.894531 230.363281 C 124.0625 265.097656 122.671875 295.644531 126.894531 299.960938 C 133.523438 307.109375 169.882812 310.15625 185.761719 311.339844 C 186.195312 311.511719 186.644531 311.597656 187.113281 311.59375 L 189.730469 311.59375 C 190.195312 311.597656 190.648438 311.511719 191.082031 311.339844 C 206.960938 310.367188 243.402344 307.109375 249.949219 300.171875 C 253.917969 295.941406 252.691406 265.3125 249.949219 230.574219 C 254.171875 249.867188 257.800781 265.566406 258.773438 267.511719 C 258.988281 267.957031 259.253906 268.363281 259.578125 268.738281 L 262.617188 282.148438 C 262.722656 282.5625 262.890625 282.945312 263.113281 283.308594 C 263.335938 283.667969 263.609375 283.988281 263.929688 284.269531 C 264.25 284.546875 264.605469 284.773438 264.992188 284.945312 C 265.378906 285.117188 265.785156 285.230469 266.207031 285.28125 C 270.878906 285.773438 275.566406 286.027344 280.269531 286.042969 C 295.597656 286.042969 302.183594 282.996094 303.03125 282.574219 C 303.710938 282.210938 304.25 281.699219 304.652344 281.039062 C 305.050781 280.378906 305.257812 279.664062 305.269531 278.890625 L 305.269531 266.199219 C 308.773438 258.835938 307.886719 232.566406 269.625 115.667969 Z M 181.578125 108.5625 L 176.640625 162.585938 C 176.570312 163.101562 176.417969 163.582031 176.171875 164.039062 C 175.929688 164.492188 175.613281 164.890625 175.222656 165.230469 C 174.835938 165.570312 174.398438 165.828125 173.914062 166.007812 C 173.429688 166.1875 172.929688 166.273438 172.417969 166.269531 L 172.035156 166.269531 C 171.503906 166.203125 171 166.042969 170.527344 165.789062 C 170.054688 165.53125 169.644531 165.199219 169.300781 164.785156 C 168.953125 164.371094 168.695312 163.910156 168.527344 163.398438 C 168.359375 162.886719 168.289062 162.363281 168.320312 161.824219 L 173.21875 108.519531 C 174.621094 108.710938 176.027344 108.808594 177.441406 108.816406 C 178.828125 108.835938 180.207031 108.753906 181.578125 108.5625 Z M 199.273438 108.816406 C 200.6875 108.8125 202.09375 108.730469 203.496094 108.5625 L 208.394531 161.824219 C 208.425781 162.363281 208.355469 162.886719 208.1875 163.398438 C 208.019531 163.910156 207.761719 164.371094 207.414062 164.785156 C 207.070312 165.199219 206.660156 165.53125 206.1875 165.789062 C 205.714844 166.042969 205.210938 166.203125 204.679688 166.269531 L 204.296875 166.269531 C 203.785156 166.273438 203.285156 166.1875 202.800781 166.007812 C 202.316406 165.828125 201.878906 165.570312 201.492188 165.230469 C 201.101562 164.890625 200.785156 164.492188 200.542969 164.039062 C 200.296875 163.582031 200.144531 163.101562 200.074219 162.585938 L 195.261719 108.476562 C 196.589844 108.722656 197.925781 108.832031 199.273438 108.816406 Z M 149.738281 278.046875 C 149.253906 277.945312 148.800781 277.769531 148.378906 277.511719 C 147.960938 277.25 147.59375 276.929688 147.285156 276.542969 C 146.976562 276.15625 146.742188 275.730469 146.585938 275.261719 C 146.425781 274.792969 146.351562 274.308594 146.359375 273.816406 L 146.359375 255.578125 C 146.378906 254.796875 146.597656 254.078125 147.011719 253.417969 C 147.429688 252.757812 147.988281 252.25 148.683594 251.898438 C 152.820312 249.617188 156.523438 246.769531 159.792969 243.359375 C 163.0625 239.945312 165.75 236.121094 167.855469 231.886719 C 168.203125 231.175781 168.710938 230.605469 169.378906 230.179688 C 170.050781 229.753906 170.78125 229.53125 171.570312 229.519531 L 207.886719 229.519531 C 208.675781 229.527344 209.402344 229.742188 210.070312 230.160156 C 210.738281 230.578125 211.25 231.140625 211.605469 231.84375 C 213.664062 236.121094 216.320312 239.988281 219.570312 243.449219 C 222.820312 246.90625 226.511719 249.792969 230.648438 252.109375 C 231.347656 252.460938 231.902344 252.96875 232.320312 253.628906 C 232.738281 254.289062 232.953125 255.011719 232.972656 255.792969 L 232.972656 274.238281 C 232.980469 274.734375 232.90625 275.214844 232.75 275.683594 C 232.589844 276.152344 232.355469 276.578125 232.046875 276.964844 C 231.738281 277.351562 231.375 277.675781 230.953125 277.933594 C 230.53125 278.191406 230.078125 278.371094 229.59375 278.46875 C 228.664062 278.46875 206.664062 282.359375 191.589844 283.207031 L 188 283.207031 C 172.667969 281.9375 150.667969 278.214844 149.738281 278.046875 Z M 213.460938 74.417969 C 215.253906 75.445312 216.660156 76.855469 217.683594 78.648438 C 218.59375 80.0625 219.71875 81.273438 221.050781 82.292969 C 222.386719 83.308594 223.855469 84.070312 225.457031 84.574219 C 228.5625 85.398438 231.378906 86.808594 233.902344 88.804688 C 224.203125 94.601562 213.785156 98.449219 202.652344 100.351562 L 202.652344 99 C 202.710938 98.679688 202.738281 98.355469 202.722656 98.03125 C 202.710938 97.703125 202.660156 97.382812 202.570312 97.070312 C 202.484375 96.753906 202.363281 96.453125 202.203125 96.167969 C 202.046875 95.882812 201.859375 95.617188 201.644531 95.375 C 201.425781 95.132812 201.183594 94.917969 200.914062 94.734375 C 200.648438 94.546875 200.363281 94.394531 200.058594 94.273438 C 199.757812 94.152344 199.445312 94.070312 199.121094 94.019531 C 198.800781 93.972656 198.476562 93.964844 198.152344 93.992188 C 197.828125 94.015625 197.511719 94.082031 197.203125 94.183594 C 196.890625 94.28125 196.597656 94.417969 196.320312 94.585938 C 196.039062 94.753906 195.785156 94.953125 195.550781 95.179688 C 195.320312 95.410156 195.113281 95.660156 194.941406 95.9375 C 194.765625 96.210938 194.625 96.503906 194.515625 96.8125 C 194.410156 97.117188 194.339844 97.433594 194.304688 97.757812 C 194.269531 98.082031 194.273438 98.40625 194.3125 98.730469 C 194.355469 99.054688 194.429688 99.371094 194.542969 99.675781 C 193.949219 99.414062 193.484375 99.003906 193.148438 98.449219 C 201.089844 86.390625 210.167969 75.433594 213.460938 74.417969 Z M 151.386719 84.574219 C 152.953125 84.003906 154.378906 83.183594 155.664062 82.117188 C 156.949219 81.046875 158.011719 79.792969 158.859375 78.351562 C 159.882812 76.558594 161.292969 75.148438 163.082031 74.121094 C 166.417969 75.308594 175.753906 86.265625 183.859375 98.535156 C 183.433594 99.203125 182.84375 99.652344 182.085938 99.886719 C 182.199219 99.582031 182.277344 99.269531 182.320312 98.945312 C 182.363281 98.621094 182.367188 98.296875 182.332031 97.972656 C 182.300781 97.648438 182.230469 97.332031 182.125 97.023438 C 182.019531 96.71875 181.878906 96.425781 181.703125 96.148438 C 181.53125 95.875 181.328125 95.621094 181.097656 95.390625 C 180.867188 95.164062 180.613281 94.964844 180.332031 94.792969 C 180.054688 94.625 179.761719 94.488281 179.453125 94.386719 C 179.144531 94.285156 178.828125 94.21875 178.503906 94.191406 C 178.179688 94.160156 177.855469 94.167969 177.535156 94.214844 C 177.214844 94.261719 176.898438 94.34375 176.597656 94.460938 C 176.292969 94.582031 176.007812 94.730469 175.742188 94.917969 C 175.472656 95.101562 175.230469 95.3125 175.007812 95.554688 C 174.789062 95.796875 174.601562 96.058594 174.445312 96.34375 C 174.285156 96.628906 174.160156 96.925781 174.070312 97.242188 C 173.980469 97.554688 173.929688 97.875 173.914062 98.199219 C 173.898438 98.523438 173.917969 98.847656 173.976562 99.167969 L 173.976562 100.394531 C 162.882812 98.425781 152.46875 94.605469 142.730469 88.929688 C 145.320312 86.894531 148.207031 85.441406 151.386719 84.574219 Z M 107.847656 277.199219 C 98.71875 278.269531 89.667969 277.804688 80.695312 275.804688 L 80.695312 271.953125 C 85.238281 273.390625 89.886719 274.195312 94.644531 274.367188 C 99.40625 274.539062 104.101562 274.074219 108.734375 272.96875 Z M 297.035156 275.804688 C 288.046875 277.800781 278.980469 278.265625 269.839844 277.199219 L 268.910156 272.96875 C 273.578125 274 278.300781 274.390625 283.074219 274.128906 C 287.847656 273.871094 292.503906 272.976562 297.035156 271.445312 Z M 297.035156 275.804688 " fill-opacity="1" fill-rule="nonzero"/></g></svg>