<svg xmlns="http://www.w3.org/2000/svg" xmlns:xlink="http://www.w3.org/1999/xlink" width="500" zoomAndPan="magnify" viewBox="0 0 375 374.999991" height="500" preserveAspectRatio="xMidYMid meet" version="1.0"><defs><clipPath id="9dd3372724"><path d="M 160.289062 69.5625 L 311 69.5625 L 311 187.3125 L 160.289062 187.3125 Z M 160.289062 69.5625 " clip-rule="nonzero"/></clipPath></defs><path fill="#000000" d="M 219.554688 203.746094 C 209.59375 168.101562 196.417969 158.972656 184.253906 162.359375 C 181.320312 163.179688 178.71875 164.65625 176.59375 166.917969 C 170.683594 168.695312 162.789062 170.53125 155.414062 170.53125 C 147.554688 170.53125 139.101562 168.441406 133.097656 166.570312 C 130.875 163.949219 128.070312 162.273438 124.875 161.378906 C 112.710938 157.992188 99.535156 167.121094 89.574219 202.769531 C 79.613281 238.414062 81.402344 270.054688 93.5625 273.441406 C 103.636719 276.25 117.667969 258.773438 127.851562 232.433594 C 133.285156 230.769531 145.234375 227.472656 154.433594 227.472656 C 162.722656 227.472656 174.132812 230.152344 180.691406 231.894531 C 190.914062 259.085938 205.300781 277.285156 215.566406 274.425781 C 227.730469 271.035156 229.515625 239.394531 219.554688 203.746094 Z M 126.714844 218.320312 C 116.34375 218.320312 107.929688 209.558594 107.929688 198.746094 C 107.929688 187.9375 116.339844 179.179688 126.714844 179.179688 C 137.09375 179.179688 145.507812 187.9375 145.507812 198.746094 C 145.507812 209.558594 137.09375 218.320312 126.714844 218.320312 Z M 172.042969 204.542969 C 168.839844 204.542969 166.242188 201.945312 166.242188 198.746094 C 166.242188 195.550781 168.839844 192.953125 172.042969 192.953125 C 175.25 192.953125 177.84375 195.550781 177.84375 198.746094 C 177.84375 201.945312 175.246094 204.542969 172.042969 204.542969 Z M 183.980469 216.453125 C 180.773438 216.453125 178.171875 213.863281 178.171875 210.664062 C 178.171875 207.464844 180.773438 204.871094 183.980469 204.871094 C 187.183594 204.871094 189.777344 207.464844 189.777344 210.664062 C 189.777344 213.863281 187.179688 216.453125 183.980469 216.453125 Z M 183.980469 192.625 C 180.773438 192.625 178.171875 190.027344 178.171875 186.832031 C 178.171875 183.628906 180.773438 181.039062 183.980469 181.039062 C 187.183594 181.039062 189.777344 183.628906 189.777344 186.832031 C 189.777344 190.027344 187.179688 192.625 183.980469 192.625 Z M 195.914062 204.542969 C 192.707031 204.542969 190.109375 201.945312 190.109375 198.746094 C 190.109375 195.550781 192.707031 192.953125 195.914062 192.953125 C 199.121094 192.953125 201.714844 195.550781 201.714844 198.746094 C 201.714844 201.945312 199.117188 204.542969 195.914062 204.542969 Z M 195.914062 204.542969 " fill-opacity="1" fill-rule="nonzero"/><path fill="#000000" d="M 143.269531 196.957031 C 143.226562 196.59375 143.171875 196.234375 143.105469 195.878906 C 143.074219 195.71875 143.046875 195.558594 143.011719 195.398438 C 142.917969 194.953125 142.804688 194.515625 142.671875 194.082031 C 142.664062 194.054688 142.65625 194.027344 142.652344 194 L 134.539062 194 L 132.125 191.589844 L 132.125 183.105469 C 131.71875 182.964844 131.300781 182.839844 130.882812 182.726562 C 130.8125 182.707031 130.742188 182.691406 130.671875 182.671875 C 130.300781 182.578125 129.925781 182.496094 129.546875 182.425781 C 129.355469 182.390625 129.160156 182.363281 128.96875 182.335938 C 128.683594 182.296875 128.398438 182.25 128.109375 182.222656 C 127.59375 182.175781 127.078125 182.144531 126.550781 182.144531 C 126.03125 182.144531 125.519531 182.175781 125.011719 182.222656 C 124.785156 182.246094 124.558594 182.277344 124.335938 182.304688 C 124.078125 182.339844 123.820312 182.378906 123.566406 182.425781 C 123.273438 182.476562 122.980469 182.535156 122.695312 182.605469 C 122.539062 182.640625 122.386719 182.683594 122.234375 182.722656 C 121.898438 182.8125 121.558594 182.90625 121.230469 183.015625 L 121.230469 191.339844 L 118.5625 194 L 110.453125 194 C 110.4375 194.046875 110.429688 194.097656 110.414062 194.144531 C 110.292969 194.550781 110.1875 194.964844 110.09375 195.382812 C 110.058594 195.558594 110.027344 195.730469 109.996094 195.90625 C 109.933594 196.25 109.878906 196.589844 109.835938 196.941406 C 109.816406 197.101562 109.796875 197.265625 109.78125 197.429688 C 109.734375 197.933594 109.703125 198.445312 109.703125 198.964844 C 109.703125 199.5 109.734375 200.027344 109.785156 200.546875 C 109.8125 200.878906 109.867188 201.203125 109.917969 201.527344 C 109.945312 201.691406 109.964844 201.859375 109.992188 202.019531 C 110.078125 202.453125 110.175781 202.878906 110.289062 203.300781 C 110.296875 203.332031 110.304688 203.367188 110.316406 203.402344 C 110.441406 203.859375 110.585938 204.308594 110.75 204.753906 L 118.417969 204.753906 L 121.226562 207.558594 L 121.226562 214.914062 C 121.558594 215.023438 121.890625 215.113281 122.226562 215.203125 C 122.382812 215.246094 122.539062 215.289062 122.699219 215.324219 C 122.984375 215.394531 123.269531 215.453125 123.558594 215.503906 C 123.816406 215.550781 124.078125 215.589844 124.339844 215.625 C 124.5625 215.652344 124.785156 215.6875 125.007812 215.707031 C 125.515625 215.753906 126.027344 215.785156 126.550781 215.785156 C 127.074219 215.785156 127.59375 215.753906 128.109375 215.707031 C 128.390625 215.679688 128.667969 215.636719 128.945312 215.59375 C 129.148438 215.566406 129.351562 215.539062 129.554688 215.503906 C 129.921875 215.433594 130.289062 215.355469 130.648438 215.261719 C 130.730469 215.242188 130.8125 215.222656 130.894531 215.199219 C 131.304688 215.089844 131.710938 214.96875 132.109375 214.828125 C 132.113281 214.824219 132.117188 214.824219 132.121094 214.820312 L 132.121094 207.3125 L 134.683594 204.753906 L 142.351562 204.753906 C 142.359375 204.730469 142.367188 204.707031 142.375 204.683594 C 142.523438 204.273438 142.660156 203.859375 142.773438 203.4375 C 142.792969 203.367188 142.808594 203.300781 142.828125 203.234375 C 142.933594 202.835938 143.027344 202.4375 143.105469 202.027344 C 143.132812 201.855469 143.15625 201.679688 143.183594 201.503906 C 143.230469 201.1875 143.285156 200.871094 143.316406 200.550781 C 143.363281 200.027344 143.394531 199.5 143.394531 198.964844 C 143.394531 198.445312 143.363281 197.933594 143.316406 197.425781 C 143.304688 197.265625 143.289062 197.113281 143.269531 196.957031 Z M 143.269531 196.957031 " fill-opacity="1" fill-rule="nonzero"/><g clip-path="url(#9dd3372724)"><path fill="#000000" d="M 266.203125 187.101562 C 264.613281 186.949219 261.648438 185.96875 260.019531 185.054688 C 259.675781 184.863281 258.988281 184.570312 258.496094 184.40625 C 258.003906 184.242188 257.433594 184.019531 257.226562 183.914062 C 257.023438 183.808594 256.148438 183.433594 255.28125 183.082031 C 253.59375 182.394531 251.453125 181.335938 250.773438 180.855469 C 250.546875 180.691406 250.097656 180.457031 249.78125 180.335938 C 249.46875 180.210938 247.613281 179.328125 245.660156 178.367188 C 243.710938 177.410156 242.082031 176.625 242.046875 176.625 C 241.835938 176.625 237.097656 174.253906 236.132812 173.667969 C 234.5 172.667969 232.359375 170.238281 231.800781 168.746094 C 231.640625 168.308594 231.292969 167.570312 231.027344 167.097656 C 230.554688 166.25 230.550781 166.222656 230.546875 164.519531 C 230.546875 163.570312 230.488281 161.261719 230.414062 159.390625 C 230.089844 151.050781 229.988281 132.105469 230.261719 131.066406 C 230.917969 128.566406 230.246094 127.546875 228.703125 128.703125 C 228.367188 128.957031 227.550781 129.472656 226.886719 129.855469 C 226.21875 130.238281 225.195312 130.839844 224.601562 131.195312 C 224.011719 131.546875 222.652344 132.324219 221.582031 132.917969 C 220.511719 133.511719 219.011719 134.378906 218.246094 134.839844 C 217.484375 135.300781 216.042969 136.09375 215.050781 136.597656 C 214.054688 137.105469 212.800781 137.773438 212.261719 138.085938 C 211.722656 138.402344 211.027344 138.726562 210.714844 138.808594 C 210.40625 138.890625 209.929688 139.136719 209.65625 139.355469 C 208.980469 139.894531 206.855469 140.527344 204.832031 140.796875 C 203.113281 141.023438 200.890625 140.964844 198.4375 140.621094 C 197.253906 140.457031 195.816406 140.277344 195.242188 140.21875 C 194.261719 140.121094 192.761719 139.804688 189.679688 139.039062 C 188.953125 138.855469 187.765625 138.574219 187.039062 138.410156 C 185.503906 138.058594 184.519531 137.820312 183.355469 137.503906 C 182.898438 137.382812 182.023438 137.164062 181.410156 137.023438 C 180.800781 136.878906 179.671875 136.609375 178.910156 136.417969 C 178.144531 136.230469 176.644531 135.875 175.570312 135.625 C 174.5 135.378906 173.316406 135.089844 172.941406 134.984375 C 172.5625 134.875 172.113281 134.789062 171.9375 134.789062 C 171.761719 134.789062 170.945312 134.609375 170.121094 134.390625 C 169.296875 134.171875 168.320312 133.921875 167.953125 133.832031 C 164.917969 133.109375 161.621094 130.195312 161.597656 128.214844 C 161.597656 128.046875 161.4375 127.535156 161.246094 127.078125 C 160.925781 126.304688 160.894531 126.035156 160.835938 123.460938 C 160.800781 121.933594 160.671875 118.683594 160.554688 116.234375 C 160.285156 110.765625 160.3125 88.09375 160.589844 87.257812 C 160.675781 86.988281 160.824219 86.414062 160.917969 85.972656 C 161.011719 85.535156 161.203125 85.074219 161.339844 84.949219 C 161.480469 84.824219 161.667969 84.496094 161.757812 84.21875 C 161.847656 83.941406 162.261719 83.3125 162.675781 82.828125 C 163.089844 82.339844 163.515625 81.800781 163.628906 81.632812 C 164.277344 80.640625 165.863281 79.707031 168.382812 78.839844 C 169.738281 78.371094 171.066406 77.886719 171.332031 77.761719 C 172.671875 77.144531 177.019531 75.484375 180.296875 74.34375 C 181.367188 73.96875 182.808594 73.4375 183.496094 73.164062 C 184.183594 72.886719 185.496094 72.371094 186.414062 72.011719 C 187.332031 71.65625 188.148438 71.316406 188.226562 71.257812 C 188.386719 71.140625 190.820312 70.503906 192.183594 70.222656 C 194.746094 69.691406 204.859375 69.59375 205.660156 70.089844 C 205.738281 70.136719 206.441406 70.265625 207.226562 70.375 C 208.011719 70.484375 209 70.628906 209.421875 70.703125 C 209.839844 70.773438 211.21875 70.992188 212.476562 71.1875 C 213.738281 71.382812 215.492188 71.667969 216.371094 71.820312 C 217.25 71.972656 218.96875 72.226562 220.191406 72.382812 C 222.792969 72.71875 223.746094 72.886719 225.003906 73.242188 C 225.507812 73.382812 226.207031 73.5 226.550781 73.5 C 226.894531 73.5 227.402344 73.589844 227.675781 73.707031 C 227.949219 73.820312 228.753906 74.011719 229.464844 74.132812 C 233.808594 74.871094 236.519531 77.46875 237.691406 82.007812 L 238.183594 83.917969 L 238.328125 91.503906 C 238.582031 104.625 238.519531 115.839844 238.1875 116.707031 C 238.039062 117.097656 237.914062 117.589844 237.914062 117.800781 C 237.914062 118.007812 237.757812 118.429688 237.570312 118.738281 C 236.675781 120.199219 236.921875 120.746094 238.25 120.242188 C 240.386719 119.429688 241.691406 119.117188 244.796875 118.664062 C 245.257812 118.597656 246.257812 118.410156 247.023438 118.246094 C 247.785156 118.082031 248.863281 117.863281 249.414062 117.761719 C 249.964844 117.65625 250.527344 117.515625 250.664062 117.441406 C 250.800781 117.371094 251.382812 117.269531 251.957031 117.21875 C 252.53125 117.164062 253.589844 116.96875 254.3125 116.78125 C 255.035156 116.597656 255.742188 116.445312 255.878906 116.445312 C 256.015625 116.445312 256.675781 116.320312 257.34375 116.167969 C 258.628906 115.875 261.9375 115.203125 264.257812 114.761719 C 265.023438 114.613281 266.273438 114.472656 267.039062 114.445312 C 267.804688 114.417969 268.679688 114.320312 268.984375 114.230469 C 269.652344 114.03125 273.558594 114.09375 275.238281 114.332031 C 276.191406 114.46875 279.074219 115.289062 280.941406 115.957031 C 283.550781 116.890625 286.753906 118.050781 287.960938 118.5 C 288.761719 118.796875 289.664062 119.085938 289.964844 119.144531 C 290.265625 119.199219 291.046875 119.515625 291.703125 119.84375 C 292.359375 120.171875 293.425781 120.644531 294.074219 120.898438 C 294.726562 121.148438 296.914062 122.007812 298.9375 122.808594 C 300.960938 123.609375 302.820312 124.324219 303.070312 124.390625 C 304.425781 124.765625 307.59375 126.941406 308.246094 127.945312 C 308.433594 128.230469 308.695312 128.589844 308.824219 128.742188 C 309.136719 129.105469 309.585938 130.484375 309.707031 131.445312 C 309.757812 131.859375 309.917969 132.699219 310.066406 133.308594 C 310.210938 133.917969 310.296875 134.46875 310.253906 134.535156 C 310.214844 134.605469 310.246094 135.453125 310.324219 136.425781 C 310.40625 137.398438 310.507812 139.445312 310.554688 140.972656 C 310.601562 142.503906 310.703125 145.347656 310.777344 147.296875 C 311.039062 154.128906 310.929688 167.082031 310.605469 167.992188 C 310.449219 168.421875 310.269531 169.105469 310.199219 169.511719 C 309.902344 171.261719 308.441406 173.734375 307.039062 174.855469 C 306.582031 175.222656 306.125 175.679688 306.019531 175.875 C 305.917969 176.070312 305.640625 176.328125 305.410156 176.445312 C 305.175781 176.5625 304.761719 176.863281 304.484375 177.113281 C 303.488281 178.003906 302.941406 178.242188 299.84375 179.125 C 299.003906 179.367188 297.457031 179.871094 296.410156 180.246094 C 295.359375 180.625 294.390625 180.929688 294.253906 180.929688 C 294.015625 180.929688 293.109375 181.195312 290.390625 182.046875 C 289.703125 182.265625 288.203125 182.707031 287.054688 183.03125 C 285.910156 183.351562 284.78125 183.695312 284.554688 183.792969 C 284.324219 183.886719 283.753906 184.035156 283.285156 184.117188 C 282.820312 184.203125 282.039062 184.429688 281.550781 184.625 C 280.394531 185.082031 277.675781 185.804688 275.101562 186.339844 C 274.796875 186.402344 274.203125 186.59375 273.78125 186.765625 C 273.03125 187.070312 268.15625 187.285156 266.203125 187.101562 Z M 273.777344 185.578125 C 274.066406 185.292969 273.800781 184.90625 273.28125 184.851562 C 272.523438 184.773438 271.386719 184.390625 270.839844 184.027344 C 269.972656 183.453125 269.671875 183.839844 270.25 184.78125 C 270.894531 185.828125 273.042969 186.3125 273.777344 185.578125 Z M 263.679688 184.257812 C 264.878906 183.921875 266.160156 182.695312 267.011719 181.0625 L 267.632812 179.875 L 267.671875 176.617188 C 267.742188 170.867188 267.714844 168.570312 267.539062 164.949219 C 267.328125 160.734375 267.3125 144.636719 267.515625 144.253906 C 267.589844 144.117188 267.746094 143.546875 267.863281 142.988281 C 268.007812 142.289062 268.261719 141.675781 268.667969 141.011719 C 268.996094 140.484375 269.386719 139.816406 269.539062 139.527344 C 270.859375 137.035156 274.289062 134.984375 278.714844 134.035156 C 279.328125 133.90625 280.171875 133.710938 280.589844 133.601562 C 281.628906 133.332031 284.714844 132.613281 285.316406 132.5 C 285.988281 132.371094 287.957031 131.910156 289.210938 131.585938 C 289.785156 131.4375 290.878906 131.191406 291.640625 131.042969 C 293.359375 130.703125 295.644531 130.203125 298.105469 129.632812 C 302.421875 128.636719 303.292969 128.507812 304.710938 128.667969 C 305.246094 128.730469 305.917969 128.890625 306.207031 129.03125 C 306.683594 129.261719 306.75 129.265625 306.949219 129.066406 C 307.316406 128.699219 306.976562 128.339844 305.507812 127.542969 L 304.152344 126.804688 L 302.484375 126.835938 C 301.355469 126.859375 300.527344 126.953125 299.914062 127.128906 C 299.089844 127.363281 297.382812 127.8125 296.160156 128.109375 C 295.472656 128.277344 291.53125 129.304688 289.628906 129.808594 C 288.746094 130.042969 287.464844 130.347656 286.777344 130.488281 C 286.089844 130.628906 284.652344 130.972656 283.582031 131.25 C 282.511719 131.53125 281.289062 131.839844 280.871094 131.941406 C 277.046875 132.839844 275.449219 133.15625 274.199219 133.261719 C 273.394531 133.328125 272.457031 133.457031 272.113281 133.550781 C 271.316406 133.765625 265.792969 133.875 264.675781 133.699219 C 264.214844 133.625 263.746094 133.617188 263.632812 133.675781 C 263.519531 133.734375 262.957031 133.667969 262.382812 133.527344 C 261.808594 133.386719 261.082031 133.269531 260.765625 133.265625 C 260.433594 133.261719 259.9375 133.121094 259.585938 132.925781 C 259.25 132.742188 258.757812 132.550781 258.488281 132.496094 C 258.222656 132.441406 257.253906 132.070312 256.335938 131.667969 C 255.417969 131.265625 254.511719 130.886719 254.320312 130.832031 C 253.953125 130.71875 252.90625 130.257812 251.746094 129.699219 C 251.367188 129.515625 250.863281 129.308594 250.636719 129.238281 C 250.40625 129.167969 249.53125 128.820312 248.691406 128.460938 C 247.246094 127.847656 246.8125 127.664062 244.691406 126.785156 C 244.214844 126.585938 243.523438 126.308594 243.15625 126.167969 C 242.789062 126.027344 242.273438 125.785156 242.011719 125.632812 C 241.75 125.476562 241.210938 125.253906 240.820312 125.136719 C 238.710938 124.511719 237.480469 123.386719 237.96875 122.53125 C 238.371094 121.824219 238.15625 121.582031 237.398438 121.894531 C 237.109375 122.015625 236.582031 122.21875 236.222656 122.34375 C 234.554688 122.933594 233.382812 124.042969 232.835938 125.550781 C 232.265625 127.121094 232.714844 127.433594 233.9375 126.324219 L 234.691406 125.644531 L 235.921875 125.71875 C 236.996094 125.785156 237.292969 125.863281 238.25 126.34375 C 238.851562 126.644531 239.949219 127.128906 240.683594 127.417969 C 242.382812 128.089844 246.234375 129.683594 247.230469 130.132812 C 247.941406 130.453125 249.96875 131.289062 253.695312 132.804688 C 255.148438 133.394531 256.757812 134.101562 259.019531 135.132812 C 260.453125 135.789062 262.699219 137.792969 263.605469 139.226562 C 264.578125 140.757812 264.621094 141.160156 264.75 150.078125 C 264.816406 154.472656 264.933594 160.882812 265.015625 164.324219 C 265.09375 167.761719 265.175781 172.671875 265.191406 175.234375 L 265.226562 179.890625 L 264.585938 181.277344 C 264.007812 182.53125 263.886719 182.703125 263.324219 183.015625 C 261.679688 183.933594 261.910156 184.746094 263.679688 184.257812 Z M 279.046875 177.460938 C 280.707031 177.222656 282.191406 174.894531 281.933594 172.941406 C 281.472656 169.484375 279.71875 168.484375 277.128906 170.210938 C 275.140625 171.535156 275.136719 176.089844 277.121094 177.300781 C 277.664062 177.632812 277.796875 177.644531 279.046875 177.460938 Z M 258.089844 175.503906 C 259.648438 174.707031 259.941406 171.164062 258.605469 169.300781 C 257.292969 167.476562 256.28125 167.273438 255.09375 168.597656 C 252.542969 171.449219 254.988281 177.085938 258.089844 175.503906 Z M 301.980469 170.472656 C 303.566406 169.046875 303.765625 167.730469 302.800781 165.054688 C 302.292969 163.65625 299.757812 162.945312 298.902344 163.960938 C 297.625 165.480469 297.511719 169.632812 298.71875 170.636719 C 299.667969 171.425781 300.992188 171.359375 301.980469 170.472656 Z M 239.027344 166.984375 C 241.621094 166.230469 241.039062 160.710938 238.292969 160.011719 C 236.589844 159.578125 236 159.914062 235.726562 161.476562 C 235.070312 165.226562 236.554688 167.707031 239.027344 166.984375 Z M 249.648438 157.570312 C 251.707031 155.28125 250.175781 150.355469 247.402344 150.355469 C 245.605469 150.355469 244.203125 154.957031 245.558594 156.398438 C 245.726562 156.574219 245.964844 156.925781 246.09375 157.183594 C 246.46875 157.929688 247.121094 158.277344 248.140625 158.277344 L 249.011719 158.277344 Z M 279.132812 151.882812 C 281.972656 150.128906 281.449219 143.941406 278.441406 143.71875 C 276.28125 143.5625 274.625 147.078125 275.585938 149.789062 C 276.199219 151.53125 276.484375 151.878906 277.433594 152.03125 C 278.425781 152.195312 278.664062 152.171875 279.132812 151.882812 Z M 258.535156 149.40625 C 259.125 148.804688 259.210938 148.640625 259.320312 147.882812 C 259.386719 147.414062 259.46875 146.980469 259.503906 146.921875 C 259.703125 146.59375 259.222656 143.835938 258.898438 143.429688 C 258.710938 143.199219 258.445312 142.847656 258.308594 142.652344 C 257.511719 141.515625 255.054688 142.285156 254.601562 143.8125 C 253.46875 147.609375 256.316406 151.660156 258.535156 149.40625 Z M 301.949219 146.011719 C 304.242188 143.578125 303.015625 138.820312 300.09375 138.820312 C 298.425781 138.820312 296.765625 142.308594 297.390625 144.511719 C 297.894531 146.292969 298.261719 146.515625 300.96875 146.71875 C 301.160156 146.734375 301.503906 146.484375 301.949219 146.011719 Z M 239.8125 141.800781 C 240.746094 141.089844 241.113281 137.890625 240.417969 136.527344 C 240.265625 136.226562 240.140625 135.875 240.140625 135.742188 C 240.140625 134.351562 237.414062 134.3125 236.699219 135.691406 C 234.824219 139.300781 237.136719 143.84375 239.8125 141.800781 Z M 202.273438 138.46875 C 203.46875 137.894531 204.851562 136.617188 205.1875 135.78125 C 205.332031 135.417969 205.574219 135.117188 205.820312 134.988281 C 206.054688 134.867188 206.25 134.628906 206.300781 134.40625 C 206.347656 134.195312 206.503906 133.574219 206.648438 133.019531 C 206.859375 132.230469 206.886719 131.871094 206.785156 131.351562 C 206.714844 130.988281 206.617188 129.25 206.570312 127.492188 C 206.414062 121.988281 206.382812 121.160156 206.21875 118.875 C 206.03125 116.234375 205.890625 110.871094 205.9375 108.242188 C 205.953125 107.210938 205.992188 104.554688 206.015625 102.335938 C 206.082031 96.667969 206.378906 94.847656 207.539062 93.023438 C 207.78125 92.644531 208.179688 92.011719 208.421875 91.621094 C 208.925781 90.816406 209.890625 89.949219 210.804688 89.484375 C 211.492188 89.132812 213.621094 88.367188 213.914062 88.367188 C 214.015625 88.367188 214.605469 88.117188 215.222656 87.8125 C 215.839844 87.507812 216.394531 87.257812 216.453125 87.257812 C 216.511719 87.257812 217.375 86.859375 218.375 86.371094 C 219.375 85.886719 220.347656 85.441406 220.539062 85.386719 C 220.730469 85.328125 221.417969 85.015625 222.066406 84.691406 C 222.71875 84.363281 223.84375 83.863281 224.570312 83.574219 C 225.296875 83.289062 226.078125 82.945312 226.308594 82.808594 C 226.539062 82.671875 227.132812 82.390625 227.628906 82.183594 C 228.125 81.976562 229.277344 81.464844 230.191406 81.042969 C 232.226562 80.101562 233.085938 79.972656 234.167969 80.4375 C 235.589844 81.046875 236.019531 80.460938 234.964844 79.351562 C 234.628906 79 234.179688 78.441406 233.972656 78.109375 C 233.460938 77.304688 232.839844 77.308594 232.457031 78.117188 C 232.191406 78.6875 231.601562 79.039062 229.351562 79.96875 C 228.679688 80.25 227.71875 80.679688 227.21875 80.929688 C 226.71875 81.179688 225.714844 81.679688 224.988281 82.042969 C 224.261719 82.40625 223.355469 82.816406 222.972656 82.953125 C 222.589844 83.09375 221.746094 83.433594 221.09375 83.714844 C 220.445312 83.996094 219.34375 84.464844 218.648438 84.757812 C 217.949219 85.046875 217.121094 85.417969 216.804688 85.578125 C 216.488281 85.742188 215.785156 86.035156 215.246094 86.226562 C 214.707031 86.421875 213.820312 86.796875 213.269531 87.058594 C 212.722656 87.320312 212.128906 87.535156 211.953125 87.535156 C 211.773438 87.535156 211.207031 87.714844 210.695312 87.929688 C 210.183594 88.148438 209.046875 88.496094 208.167969 88.707031 C 207.289062 88.914062 206.320312 89.144531 206.011719 89.21875 C 205.328125 89.382812 197.675781 89.28125 197.1875 89.097656 C 196.996094 89.027344 196.339844 88.886719 195.726562 88.792969 C 195.113281 88.695312 193.839844 88.464844 192.894531 88.28125 C 191.945312 88.097656 190.195312 87.820312 189 87.660156 C 187.808594 87.503906 186.414062 87.285156 185.90625 87.175781 C 185.398438 87.066406 184.808594 86.980469 184.597656 86.980469 C 184.386719 86.980469 183.675781 86.882812 183.019531 86.765625 C 181.949219 86.574219 175.699219 85.535156 173.207031 85.136719 C 170.269531 84.664062 165.839844 85.152344 163.703125 86.183594 C 162.882812 86.578125 162.199219 88.113281 162.640625 88.554688 C 162.96875 88.882812 163.011719 88.867188 164.011719 88.011719 C 165.816406 86.472656 169.609375 86.097656 172.789062 87.148438 C 173.25 87.300781 174.40625 87.542969 175.363281 87.6875 C 176.316406 87.832031 177.570312 88.042969 178.140625 88.15625 C 178.714844 88.269531 179.871094 88.492188 180.714844 88.648438 C 182.972656 89.074219 184.398438 89.347656 185.023438 89.488281 C 185.757812 89.648438 188.191406 90.109375 189.714844 90.378906 C 195.164062 91.339844 195.289062 91.367188 196.867188 92.144531 C 198.257812 92.828125 199.957031 94.105469 200.644531 94.988281 C 201.761719 96.417969 202.179688 97.050781 202.515625 97.835938 C 202.722656 98.324219 203.027344 98.972656 203.195312 99.277344 C 203.550781 99.933594 203.75 101.074219 203.785156 102.617188 C 203.800781 103.226562 203.890625 103.871094 203.984375 104.046875 C 204.191406 104.433594 204.355469 111.8125 204.394531 122.421875 C 204.410156 126.355469 204.457031 130.023438 204.503906 130.570312 C 204.730469 133.214844 202.960938 136.5 200.59375 137.835938 C 198.65625 138.925781 200.152344 139.492188 202.273438 138.46875 Z M 211.511719 137.148438 C 211.660156 137.066406 211.78125 136.882812 211.78125 136.738281 C 211.78125 136.472656 211.671875 136.414062 210.8125 136.242188 C 210.488281 136.175781 210.132812 135.929688 209.738281 135.5 C 208.777344 134.457031 208.242188 135.171875 209.066406 136.398438 C 209.605469 137.203125 210.753906 137.554688 211.511719 137.148438 Z M 194.960938 129.832031 C 197.277344 129.445312 198.285156 123.960938 196.253906 122.796875 C 193.351562 121.132812 189.945312 125.042969 191.746094 127.972656 C 191.96875 128.328125 192.191406 128.757812 192.246094 128.929688 C 192.367188 129.308594 193.804688 130.089844 194.199219 129.984375 C 194.351562 129.945312 194.695312 129.878906 194.960938 129.832031 Z M 216.707031 127.109375 C 217.035156 126.765625 217.355469 126.25 217.464844 125.890625 C 217.570312 125.550781 217.746094 124.972656 217.859375 124.609375 C 218.019531 124.085938 218.027344 123.800781 217.910156 123.246094 C 217.828125 122.859375 217.757812 122.375 217.757812 122.167969 C 217.75 119.921875 213.734375 118.863281 213.371094 121.015625 C 213.324219 121.289062 213.183594 121.796875 213.054688 122.140625 C 211.753906 125.664062 214.507812 129.40625 216.707031 127.109375 Z M 272.6875 125.121094 C 275.492188 124.730469 275.832031 123.769531 273.40625 123.101562 C 269.976562 122.164062 264.496094 123.074219 265.484375 124.421875 C 265.980469 125.101562 270.023438 125.492188 272.6875 125.121094 Z M 172.632812 124.582031 C 173.5625 123.90625 174.246094 122.027344 174.25 120.144531 C 174.25 118.832031 174.296875 118.960938 173.203125 117.238281 C 172.582031 116.257812 171.125 115.871094 170.347656 116.476562 C 170.125 116.648438 169.753906 116.9375 169.523438 117.117188 C 167.382812 118.769531 168.316406 123.636719 170.976562 124.699219 C 171.855469 125.050781 172.003906 125.039062 172.632812 124.582031 Z M 194.789062 116.585938 C 196.613281 116.011719 196.871094 115.628906 197 113.246094 C 197.105469 111.34375 196.703125 109.960938 195.890625 109.429688 C 194.917969 108.789062 192.835938 108.585938 192.386719 109.082031 C 192.246094 109.238281 191.929688 109.488281 191.683594 109.640625 C 190.613281 110.304688 190.34375 112.917969 191.179688 114.566406 C 192.113281 116.410156 193.273438 117.058594 194.789062 116.585938 Z M 223.738281 111.648438 C 223.925781 111.539062 224.339844 111.320312 224.652344 111.167969 C 227.058594 109.992188 226.585938 103.425781 224.082031 103.265625 C 220.933594 103.058594 219.359375 108.335938 221.738281 111.121094 C 222.429688 111.929688 223 112.082031 223.738281 111.648438 Z M 172.214844 111.527344 C 174.675781 110.5 173.847656 103.945312 171.226562 103.691406 C 169.605469 103.535156 168.5 104.558594 168.265625 106.429688 C 168.128906 107.507812 168.164062 107.945312 168.535156 109.765625 C 168.683594 110.484375 169.621094 111.421875 170.21875 111.445312 C 170.410156 111.453125 170.691406 111.511719 170.84375 111.578125 C 171.257812 111.757812 171.703125 111.742188 172.214844 111.527344 Z M 195.140625 104.164062 C 198.238281 102.855469 197.046875 96.289062 193.714844 96.289062 C 192.859375 96.289062 190.960938 97.332031 190.722656 97.925781 C 189.199219 101.777344 191.867188 105.546875 195.140625 104.164062 Z M 172.046875 99.523438 C 173.890625 97.570312 174.199219 93.441406 172.546875 92.835938 C 170.097656 91.933594 169.472656 91.859375 168.90625 92.390625 C 168.402344 92.867188 167.996094 93.785156 167.996094 94.449219 C 167.996094 94.765625 167.929688 95.195312 167.847656 95.410156 C 167.695312 95.808594 167.730469 95.980469 168.371094 98.097656 C 168.917969 99.894531 170.949219 100.683594 172.046875 99.523438 Z M 231.648438 97.410156 C 231.980469 97.230469 232.984375 95.675781 233.265625 94.898438 C 234.109375 92.570312 232.292969 88.480469 230.886719 89.546875 C 230.738281 89.65625 230.453125 89.75 230.253906 89.753906 C 228.128906 89.78125 227.5625 95.878906 229.558594 97.222656 C 230.066406 97.5625 231.175781 97.664062 231.648438 97.410156 Z M 166.109375 83.925781 C 166.660156 83.714844 165.734375 82.113281 165.0625 82.113281 C 163.6875 82.113281 163.636719 83.851562 165.007812 83.957031 C 165.390625 83.984375 165.710938 84.023438 165.726562 84.035156 C 165.742188 84.050781 165.914062 84 166.109375 83.925781 Z M 203.925781 83.734375 C 205.070312 83.5 205.410156 82.628906 204.617188 81.972656 C 203.957031 81.425781 199.960938 81.101562 198.28125 81.460938 C 197.714844 81.578125 196.914062 81.746094 196.5 81.832031 C 194.824219 82.167969 194.902344 83.070312 196.628906 83.28125 C 197.050781 83.335938 197.597656 83.441406 197.847656 83.523438 C 199.03125 83.898438 202.542969 84.023438 203.925781 83.734375 Z M 199.894531 76.136719 C 200.339844 75.984375 200.835938 75.859375 200.996094 75.855469 C 201.917969 75.84375 202.1875 74.300781 201.296875 74.132812 C 196.816406 73.289062 193.152344 73.640625 193.152344 74.914062 C 193.152344 75.230469 193.632812 75.71875 193.953125 75.726562 C 194.085938 75.730469 194.445312 75.828125 194.753906 75.945312 C 196.0625 76.449219 198.707031 76.546875 199.894531 76.136719 Z M 199.894531 76.136719 " fill-opacity="1" fill-rule="nonzero"/></g></svg>