<svg xmlns="http://www.w3.org/2000/svg" xmlns:xlink="http://www.w3.org/1999/xlink" width="500" zoomAndPan="magnify" viewBox="0 0 375 374.999991" height="500" preserveAspectRatio="xMidYMid meet" version="1.0"><defs><clipPath id="cdaa65e30d"><path d="M 50.34375 180.613281 L 245.773438 180.613281 L 245.773438 306.664062 L 50.34375 306.664062 Z M 50.34375 180.613281 " clip-rule="nonzero"/></clipPath><clipPath id="366bf22ddc"><path d="M 245.773438 111.238281 L 324.921875 111.238281 L 324.921875 186 L 245.773438 186 Z M 245.773438 111.238281 " clip-rule="nonzero"/></clipPath><clipPath id="a0970c4207"><path d="M 259 278 L 312 278 L 312 306.664062 L 259 306.664062 Z M 259 278 " clip-rule="nonzero"/></clipPath><clipPath id="5152620b27"><path d="M 76 68.335938 L 139.507812 68.335938 L 139.507812 154.324219 L 76 154.324219 Z M 76 68.335938 " clip-rule="nonzero"/></clipPath></defs><g clip-path="url(#cdaa65e30d)"><path fill="#000000" d="M 234.71875 208.976562 L 229.992188 208.976562 L 229.992188 199.519531 C 229.992188 189.09375 221.511719 180.613281 211.085938 180.613281 L 85.035156 180.613281 C 74.605469 180.613281 66.125 189.09375 66.125 199.519531 L 66.125 208.976562 L 61.398438 208.976562 C 55.316406 208.976562 50.371094 213.921875 50.371094 220.003906 L 50.371094 283.03125 C 50.371094 289.109375 55.316406 294.058594 61.398438 294.058594 L 62.976562 294.058594 L 62.976562 303.511719 C 62.976562 305.253906 64.386719 306.664062 66.125 306.664062 L 75.1875 306.664062 C 76.597656 306.664062 77.835938 305.726562 78.21875 304.367188 L 81.117188 294.058594 L 215 294.058594 L 217.898438 304.367188 C 218.28125 305.726562 219.523438 306.664062 220.933594 306.664062 L 229.992188 306.664062 C 231.734375 306.664062 233.144531 305.253906 233.144531 303.511719 L 233.144531 294.058594 L 234.71875 294.058594 C 240.800781 294.058594 245.75 289.109375 245.75 283.03125 L 245.75 220.003906 C 245.75 213.921875 240.800781 208.976562 234.71875 208.976562 Z M 72.429688 199.519531 C 72.429688 192.574219 78.082031 186.914062 85.035156 186.914062 L 211.085938 186.914062 C 218.035156 186.914062 223.691406 192.574219 223.691406 199.519531 L 223.691406 208.976562 L 218.960938 208.976562 C 212.878906 208.976562 207.933594 213.921875 207.933594 220.003906 L 207.933594 235.863281 C 204.585938 232.859375 200.164062 231.035156 195.328125 231.035156 L 100.789062 231.035156 C 95.953125 231.035156 91.535156 232.859375 88.183594 235.863281 L 88.183594 220.003906 C 88.183594 213.921875 83.238281 208.976562 77.15625 208.976562 L 72.429688 208.976562 Z M 207.933594 249.941406 L 207.933594 256.242188 L 88.183594 256.242188 L 88.183594 249.941406 C 88.183594 242.992188 93.835938 237.335938 100.789062 237.335938 L 195.328125 237.335938 C 202.28125 237.335938 207.933594 242.992188 207.933594 249.941406 Z M 72.800781 300.359375 L 69.277344 300.359375 L 69.277344 294.058594 L 74.570312 294.058594 Z M 226.839844 300.359375 L 223.320312 300.359375 L 221.546875 294.058594 L 226.839844 294.058594 Z M 239.445312 283.03125 C 239.445312 285.636719 237.328125 287.757812 234.71875 287.757812 L 61.398438 287.757812 C 58.792969 287.757812 56.671875 285.636719 56.671875 283.03125 L 56.671875 220.003906 C 56.671875 217.394531 58.792969 215.277344 61.398438 215.277344 L 77.15625 215.277344 C 79.761719 215.277344 81.882812 217.394531 81.882812 220.003906 L 81.882812 259.394531 C 81.882812 261.136719 83.292969 262.546875 85.035156 262.546875 L 211.085938 262.546875 C 212.824219 262.546875 214.234375 261.136719 214.234375 259.394531 L 214.234375 220.003906 C 214.234375 217.394531 216.355469 215.277344 218.960938 215.277344 L 234.71875 215.277344 C 237.328125 215.277344 239.445312 217.394531 239.445312 220.003906 Z M 239.445312 283.03125 " fill-opacity="1" fill-rule="nonzero"/></g><g clip-path="url(#366bf22ddc)"><path fill="#000000" d="M 324.90625 186 L 315.519531 118.765625 C 315.519531 114.609375 311.757812 111.25 307.113281 111.25 L 263.582031 111.25 C 258.9375 111.25 255.171875 114.609375 255.171875 118.765625 L 245.789062 186 L 324.90625 186 " fill-opacity="1" fill-rule="nonzero"/></g><path stroke-linecap="round" transform="matrix(0.0861635, 0, 0, -0.0858643, 102.163224, 391.497776)" fill="none" stroke-linejoin="round" d="M 2320.996715 2472.215651 L 2484.611881 2472.215651 L 2403.189648 3057.896194 " stroke="#fac260" stroke-width="19.93" stroke-opacity="1" stroke-miterlimit="10"/><path stroke-linecap="butt" transform="matrix(0.0861635, 0, 0, -0.0858643, 102.163224, 391.497776)" fill="none" stroke-linejoin="miter" d="M 2126.009508 2393.284803 L 2126.009508 1126.478806 " stroke="#96a6af" stroke-width="69.755997" stroke-opacity="1" stroke-miterlimit="10"/><path stroke-linecap="butt" transform="matrix(0.0861635, 0, 0, -0.0858643, 102.163224, 391.497776)" fill="none" stroke-linejoin="miter" d="M 1905.498517 2393.284803 L 1905.498517 2128.195435 " stroke="#96a6af" stroke-width="22.778999" stroke-opacity="1" stroke-miterlimit="10"/><path fill="#000000" d="M 270.183594 207.78125 C 270.183594 209.894531 268.46875 211.601562 266.347656 211.601562 C 264.226562 211.601562 262.511719 209.894531 262.511719 207.78125 C 262.511719 205.671875 264.226562 203.960938 266.347656 203.960938 C 268.46875 203.960938 270.183594 205.671875 270.183594 207.78125 " fill-opacity="1" fill-rule="nonzero"/><g clip-path="url(#a0970c4207)"><path fill="#000000" d="M 311.125 303.683594 C 307.40625 300.472656 303.585938 297.375 299.8125 294.222656 C 296.382812 291.363281 293.367188 288.175781 290.515625 284.761719 C 288.765625 282.664062 287.078125 280.527344 285.371094 278.398438 C 281.324219 283.464844 277.351562 288.734375 272.386719 292.941406 C 268.148438 296.539062 263.78125 299.992188 259.609375 303.683594 C 259.03125 304.191406 258.84375 305.050781 259.179688 305.574219 C 259.800781 306.535156 260.894531 306.648438 261.808594 306.648438 L 308.9375 306.648438 C 309.851562 306.648438 310.945312 306.535156 311.558594 305.574219 C 311.894531 305.050781 311.722656 304.191406 311.125 303.683594 " fill-opacity="1" fill-rule="nonzero"/></g><path fill="#f6f6f6" d="M 79.054688 71.457031 L 79.054688 152.128906 L 136.59375 152.128906 L 136.59375 71.457031 Z M 79.054688 71.457031 " fill-opacity="1" fill-rule="nonzero"/><g clip-path="url(#5152620b27)"><path fill="#000000" d="M 79.160156 71.484375 L 136.367188 71.484375 L 136.367188 151.199219 L 79.160156 151.199219 Z M 77.585938 68.34375 C 77.171875 68.34375 76.769531 68.507812 76.476562 68.800781 C 76.179688 69.097656 76.015625 69.496094 76.015625 69.914062 L 76.015625 152.769531 C 76.015625 153.1875 76.179688 153.585938 76.476562 153.882812 C 76.769531 154.175781 77.171875 154.339844 77.585938 154.339844 L 137.941406 154.339844 C 138.808594 154.339844 139.515625 153.636719 139.515625 152.769531 L 139.515625 69.914062 C 139.515625 69.046875 138.808594 68.34375 137.941406 68.34375 Z M 77.585938 68.34375 " fill-opacity="1" fill-rule="nonzero"/></g><path fill="#000000" d="M 80.9375 73.566406 L 134.523438 73.566406 L 134.523438 149.132812 L 80.9375 149.132812 Z M 79.414062 70.519531 C 79.007812 70.519531 78.621094 70.679688 78.335938 70.96875 C 78.046875 71.253906 77.886719 71.640625 77.886719 72.042969 L 77.886719 150.65625 C 77.886719 151.058594 78.046875 151.449219 78.335938 151.734375 C 78.621094 152.019531 79.007812 152.179688 79.414062 152.179688 L 136.046875 152.179688 C 136.890625 152.179688 137.574219 151.496094 137.574219 150.65625 L 137.574219 72.042969 C 137.574219 71.203125 136.890625 70.519531 136.046875 70.519531 Z M 79.414062 70.519531 " fill-opacity="1" fill-rule="nonzero"/><path fill="#000000" d="M 91.128906 76.644531 L 91.117188 76.773438 C 90.96875 78.171875 90.882812 79.550781 90.859375 80.90625 L 90.871094 82.929688 C 90.910156 84.269531 91.011719 85.589844 91.175781 86.886719 C 91.503906 89.484375 92.082031 92.003906 92.910156 94.441406 C 93.285156 95.621094 94.042969 97.414062 95.191406 99.816406 L 99.398438 107.320312 L 101.925781 112.515625 C 103.542969 114.960938 104.617188 116.75 105.144531 117.894531 C 105.996094 119.527344 106.917969 122.070312 107.917969 125.519531 C 108.445312 127.882812 108.554688 131.179688 108.25 135.40625 C 108.089844 136.929688 107.851562 138.453125 107.539062 139.980469 C 107.042969 142.472656 106.425781 144.835938 105.683594 147.070312 C 105.742188 146.859375 105.800781 146.960938 105.851562 147.378906 L 105.707031 147.882812 C 107.105469 144.933594 108.039062 142.65625 108.515625 141.050781 L 113.96875 118.917969 L 114.433594 115.546875 C 114.863281 113.964844 115.488281 112.175781 116.308594 110.175781 C 118.933594 104.09375 122.28125 99.910156 126.359375 97.632812 C 122.539062 99.296875 119.140625 102.535156 116.160156 107.355469 L 114.464844 110.414062 C 113.175781 113.394531 112.066406 115.609375 111.144531 117.058594 C 110.871094 117.632812 110.472656 119.574219 109.953125 122.875 C 109.230469 119.582031 107.824219 115.972656 105.738281 112.042969 L 104.066406 109.265625 C 100.988281 105.238281 98.542969 101.730469 96.730469 98.75 C 95.800781 97.222656 94.839844 95.324219 93.855469 93.046875 C 92.847656 90.492188 92.105469 87.992188 91.632812 85.546875 C 91.398438 84.324219 91.230469 83.117188 91.128906 81.921875 C 90.996094 81.308594 90.996094 79.546875 91.128906 76.644531 Z M 91.128906 76.644531 " fill-opacity="1" fill-rule="nonzero"/><path fill="#4e9951" d="M 92.59375 70.851562 Z M 92.59375 70.851562 Z M 92.59375 70.855469 L 92.503906 71.042969 C 92.277344 71.546875 92.066406 72.117188 91.875 72.742188 C 91.976562 72.414062 92.082031 72.113281 92.1875 71.839844 C 92.238281 71.699219 92.289062 71.570312 92.339844 71.449219 L 92.445312 71.199219 Z M 90.929688 76.375 L 90.917969 76.375 C 90.886719 76.382812 90.855469 76.421875 90.824219 76.488281 C 90.773438 76.640625 90.742188 76.75 90.730469 76.820312 C 90.71875 76.867188 90.710938 76.914062 90.703125 76.960938 L 90.675781 77.148438 L 90.667969 77.199219 C 90.660156 77.300781 90.65625 77.429688 90.664062 77.582031 L 90.667969 77.664062 L 90.6875 77.878906 L 90.714844 78.089844 C 90.730469 78.230469 90.753906 78.371094 90.777344 78.507812 C 90.800781 78.644531 90.828125 78.78125 90.859375 78.917969 C 90.890625 79.050781 90.925781 79.183594 90.960938 79.316406 L 91.019531 79.511719 L 91.042969 79.445312 L 91.054688 79.285156 C 91.0625 79.15625 91.078125 78.859375 91.097656 78.398438 C 91.109375 78.234375 91.128906 77.964844 91.152344 77.585938 C 91.15625 77.476562 91.15625 77.378906 91.15625 77.292969 C 91.15625 77.277344 91.152344 77.234375 91.148438 77.171875 C 91.140625 77.085938 91.128906 77.007812 91.121094 76.9375 C 91.109375 76.867188 91.097656 76.804688 91.089844 76.746094 C 91.078125 76.6875 91.070312 76.636719 91.058594 76.59375 L 91.042969 76.535156 C 91.035156 76.5 91.027344 76.46875 91.015625 76.445312 L 91.007812 76.429688 C 90.980469 76.394531 90.953125 76.375 90.929688 76.375 Z M 92.03125 80.289062 L 92.011719 80.292969 C 91.917969 80.328125 91.785156 80.421875 91.613281 80.574219 C 91.496094 80.691406 91.363281 80.859375 91.214844 81.082031 C 91.101562 81.265625 91.03125 81.460938 91.003906 81.660156 L 90.996094 81.761719 L 91.125 81.808594 C 91.488281 81.46875 91.738281 81.179688 91.871094 80.941406 C 91.960938 80.796875 92.027344 80.648438 92.074219 80.496094 C 92.085938 80.441406 92.09375 80.398438 92.085938 80.363281 C 92.085938 80.347656 92.078125 80.332031 92.074219 80.320312 L 92.058594 80.304688 C 92.046875 80.296875 92.039062 80.289062 92.03125 80.289062 Z M 90.0625 82.191406 C 90.0625 82.191406 90.058594 82.195312 90.058594 82.195312 L 90.046875 82.195312 C 90.023438 82.199219 90.003906 82.222656 89.988281 82.265625 C 89.980469 82.34375 89.980469 82.414062 89.976562 82.484375 C 89.976562 82.523438 89.980469 82.617188 89.988281 82.765625 L 90 82.847656 C 90.007812 82.898438 90.019531 82.945312 90.03125 82.988281 L 90.109375 83.238281 L 90.1875 83.417969 L 90.277344 83.589844 L 90.382812 83.757812 L 90.503906 83.914062 C 90.671875 84.121094 90.882812 84.3125 91.136719 84.480469 L 90.941406 83.832031 C 90.910156 83.691406 90.878906 83.566406 90.839844 83.449219 C 90.804688 83.335938 90.765625 83.234375 90.722656 83.144531 C 90.664062 83.027344 90.613281 82.929688 90.566406 82.855469 L 90.214844 82.316406 C 90.148438 82.234375 90.097656 82.191406 90.0625 82.191406 Z M 92.769531 84.488281 L 92.75 84.492188 C 92.683594 84.527344 92.621094 84.578125 92.558594 84.640625 C 92.414062 84.789062 92.320312 84.894531 92.28125 84.964844 C 92.25 85.007812 92.222656 85.050781 92.195312 85.097656 L 92.152344 85.160156 C 92.128906 85.207031 92.105469 85.25 92.082031 85.292969 C 92.046875 85.359375 92 85.464844 91.941406 85.609375 C 91.894531 85.730469 91.855469 85.847656 91.820312 85.960938 L 91.777344 86.125 C 91.75 86.234375 91.730469 86.335938 91.71875 86.433594 L 91.710938 86.582031 L 91.710938 86.71875 L 91.722656 86.847656 L 91.808594 86.925781 C 91.925781 86.835938 92.050781 86.695312 92.175781 86.503906 C 92.238281 86.40625 92.300781 86.296875 92.367188 86.175781 L 92.464844 85.988281 C 92.53125 85.851562 92.597656 85.707031 92.664062 85.546875 C 92.703125 85.441406 92.734375 85.34375 92.761719 85.253906 C 92.785156 85.183594 92.804688 85.078125 92.820312 84.949219 C 92.847656 84.664062 92.832031 84.507812 92.769531 84.488281 Z M 89.542969 85.714844 C 89.539062 85.714844 89.535156 85.714844 89.53125 85.714844 L 89.507812 85.71875 C 89.453125 85.722656 89.410156 85.75 89.382812 85.796875 C 89.386719 85.929688 89.414062 86.070312 89.472656 86.21875 C 89.558594 86.457031 89.660156 86.679688 89.78125 86.886719 C 89.839844 86.992188 89.90625 87.089844 89.976562 87.183594 L 90.085938 87.324219 L 90.199219 87.457031 C 90.28125 87.546875 90.363281 87.628906 90.453125 87.707031 C 90.507812 87.757812 90.648438 87.859375 90.882812 88.011719 C 91.148438 88.175781 91.398438 88.253906 91.628906 88.253906 C 91.628906 88.253906 91.632812 88.253906 91.632812 88.253906 L 91.308594 87.449219 C 91.230469 87.300781 91.144531 87.15625 91.050781 87.019531 L 90.902344 86.820312 C 90.699219 86.554688 90.457031 86.316406 90.183594 86.09375 C 90.046875 85.984375 89.902344 85.878906 89.75 85.78125 C 89.65625 85.738281 89.585938 85.714844 89.542969 85.714844 Z M 94.667969 87.496094 C 94.664062 87.496094 94.65625 87.496094 94.652344 87.496094 L 94.601562 87.5 C 94.597656 87.5 94.597656 87.5 94.59375 87.5 C 94.511719 87.5 94.332031 87.597656 94.054688 87.789062 L 93.953125 87.867188 C 93.746094 88.082031 93.632812 88.210938 93.605469 88.25 C 93.363281 88.523438 93.167969 88.902344 93.019531 89.382812 C 92.929688 89.683594 92.871094 90.035156 92.835938 90.445312 C 92.824219 90.5625 92.820312 90.683594 92.816406 90.800781 C 92.816406 91.097656 92.824219 91.273438 92.832031 91.332031 C 92.851562 91.566406 92.886719 91.800781 92.9375 92.03125 L 93.210938 92.296875 C 93.730469 91.601562 94.164062 90.660156 94.511719 89.472656 L 94.625 89.082031 C 94.695312 88.835938 94.75 88.621094 94.789062 88.433594 C 94.828125 88.246094 94.851562 88.085938 94.859375 87.957031 L 94.863281 87.78125 L 94.84375 87.652344 C 94.8125 87.578125 94.789062 87.539062 94.777344 87.539062 C 94.738281 87.511719 94.703125 87.496094 94.667969 87.496094 Z M 89.234375 92.222656 L 89.1875 92.226562 C 89.125 92.238281 89.089844 92.273438 89.078125 92.328125 C 89.074219 92.40625 89.078125 92.460938 89.09375 92.492188 L 89.117188 92.5625 L 89.261719 92.832031 L 89.421875 93.089844 C 89.75 93.59375 90.160156 94.027344 90.648438 94.382812 C 91.210938 94.792969 91.839844 95.136719 92.539062 95.421875 C 92.695312 95.484375 92.851562 95.535156 93.011719 95.570312 C 93.132812 95.605469 93.335938 95.628906 93.617188 95.636719 L 93.421875 95.164062 C 92.941406 94.605469 92.5625 94.179688 92.289062 93.886719 C 92.160156 93.765625 91.992188 93.625 91.78125 93.457031 C 91.378906 93.140625 90.960938 92.871094 90.53125 92.644531 C 90.058594 92.425781 89.628906 92.285156 89.234375 92.222656 Z M 127.644531 96.429688 L 127.601562 96.429688 C 127.425781 96.457031 127.179688 96.539062 126.867188 96.679688 C 126.699219 96.753906 126.492188 96.886719 126.234375 97.085938 C 126.078125 97.234375 125.976562 97.339844 125.925781 97.398438 C 125.769531 97.578125 125.582031 97.804688 125.367188 98.082031 L 125.4375 98.261719 C 125.628906 98.183594 125.742188 98.132812 125.777344 98.109375 C 125.847656 98.074219 125.917969 98.035156 125.988281 97.988281 C 126.105469 97.921875 126.261719 97.804688 126.457031 97.640625 C 126.488281 97.617188 126.527344 97.578125 126.578125 97.535156 L 126.574219 97.535156 C 126.734375 97.464844 126.871094 97.40625 126.984375 97.359375 L 127 97.320312 L 126.929688 97.351562 C 126.820312 97.402344 126.714844 97.453125 126.609375 97.507812 C 126.65625 97.460938 126.714844 97.40625 126.777344 97.347656 L 127.183594 96.960938 L 127.289062 96.851562 C 127.5625 96.578125 127.679688 96.4375 127.644531 96.429688 Z M 98.769531 91.757812 L 98.761719 91.757812 L 98.675781 91.78125 L 98.339844 92.023438 L 98.023438 92.285156 C 97.820312 92.46875 97.632812 92.664062 97.457031 92.875 L 97.207031 93.203125 C 97.046875 93.429688 96.898438 93.671875 96.765625 93.925781 C 96.636719 94.179688 96.519531 94.449219 96.414062 94.734375 C 96.199219 95.261719 96.050781 95.820312 95.972656 96.410156 C 95.933594 96.703125 95.910156 97.007812 95.90625 97.316406 L 95.914062 97.789062 C 95.925781 98.109375 95.957031 98.433594 96.003906 98.769531 L 96.738281 98.363281 C 97.335938 97.441406 97.800781 96.578125 98.128906 95.769531 L 98.28125 95.371094 C 98.375 95.105469 98.453125 94.851562 98.515625 94.601562 C 98.683594 94.003906 98.804688 93.476562 98.878906 93.023438 C 98.960938 92.511719 98.984375 92.183594 98.953125 92.039062 C 98.929688 91.851562 98.867188 91.757812 98.769531 91.757812 Z M 125.984375 98.582031 L 125.667969 98.589844 L 125.363281 98.617188 L 125.074219 98.664062 L 124.800781 98.722656 L 124.539062 98.800781 L 124.296875 98.894531 L 124.0625 99.003906 L 123.847656 99.132812 L 123.644531 99.273438 L 123.382812 99.433594 C 123.90625 99.617188 124.226562 99.714844 124.34375 99.734375 C 124.46875 99.757812 124.601562 99.773438 124.746094 99.773438 C 124.773438 99.773438 124.804688 99.773438 124.835938 99.769531 C 125.320312 99.738281 125.730469 99.667969 126.058594 99.558594 C 126.167969 99.523438 126.269531 99.480469 126.363281 99.4375 L 126.496094 99.363281 C 126.652344 99.261719 126.769531 99.164062 126.851562 99.078125 C 126.9375 98.976562 126.980469 98.917969 126.972656 98.902344 C 126.988281 98.863281 126.992188 98.832031 126.984375 98.800781 C 126.894531 98.746094 126.777344 98.703125 126.636719 98.667969 C 126.566406 98.652344 126.488281 98.636719 126.40625 98.625 C 126.371094 98.613281 126.230469 98.601562 125.984375 98.582031 Z M 123.082031 96.054688 L 123.078125 96.054688 C 122.804688 96.183594 122.46875 96.523438 122.074219 97.078125 C 121.96875 97.238281 121.871094 97.410156 121.785156 97.589844 L 121.664062 97.871094 C 121.589844 98.058594 121.523438 98.257812 121.464844 98.464844 L 121.363281 98.886719 L 121.347656 99 C 121.335938 99.082031 121.328125 99.167969 121.324219 99.261719 C 121.320312 99.507812 121.320312 99.667969 121.328125 99.734375 C 121.332031 99.96875 121.359375 100.226562 121.40625 100.503906 C 121.453125 100.738281 121.519531 100.910156 121.601562 101.015625 L 122.050781 100.570312 L 122.503906 99.597656 C 122.539062 99.523438 122.640625 99.222656 122.816406 98.699219 C 122.855469 98.578125 122.929688 98.234375 123.035156 97.664062 C 123.128906 97.183594 123.191406 96.804688 123.214844 96.53125 C 123.230469 96.355469 123.230469 96.234375 123.214844 96.167969 C 123.183594 96.097656 123.140625 96.0625 123.082031 96.054688 Z M 90.644531 97.769531 L 90.511719 97.785156 C 90.359375 97.820312 90.308594 97.925781 90.359375 98.101562 C 90.382812 98.1875 90.433594 98.292969 90.507812 98.414062 L 90.636719 98.613281 C 90.914062 98.996094 91.296875 99.441406 91.789062 99.945312 C 92.011719 100.164062 92.234375 100.367188 92.457031 100.550781 L 92.792969 100.8125 C 93.371094 101.246094 94.15625 101.648438 95.152344 102.019531 C 95.644531 102.191406 96.125 102.273438 96.601562 102.273438 C 96.714844 102.273438 96.824219 102.269531 96.933594 102.261719 L 97.09375 102.238281 L 96.070312 100.878906 C 95.660156 100.453125 95.214844 100.050781 94.734375 99.671875 C 93.054688 98.519531 91.691406 97.886719 90.644531 97.769531 Z M 118.914062 98.203125 L 118.882812 98.207031 C 118.835938 98.207031 118.757812 98.277344 118.648438 98.417969 L 118.355469 98.835938 C 118.195312 99.082031 118.050781 99.328125 117.921875 99.582031 C 117.796875 99.835938 117.683594 100.09375 117.589844 100.355469 C 117.496094 100.613281 117.417969 100.878906 117.355469 101.152344 L 117.277344 101.558594 C 117.207031 102.058594 117.167969 102.425781 117.15625 102.664062 C 117.148438 102.808594 117.144531 102.949219 117.144531 103.089844 L 117.144531 103.289062 C 117.152344 103.421875 117.160156 103.550781 117.171875 103.671875 C 117.308594 104.78125 117.476562 105.464844 117.679688 105.714844 L 118.425781 104.652344 C 118.53125 104.390625 118.628906 104.125 118.714844 103.847656 L 118.835938 103.425781 C 118.910156 103.140625 118.972656 102.847656 119.027344 102.542969 L 119.101562 102.085938 C 119.140625 101.777344 119.175781 101.460938 119.195312 101.132812 C 119.226562 100.566406 119.234375 99.96875 119.21875 99.34375 C 119.207031 99.011719 119.183594 98.773438 119.152344 98.632812 C 119.09375 98.347656 119.015625 98.203125 118.914062 98.203125 Z M 103.226562 97.554688 L 103.21875 97.554688 C 102.964844 97.558594 102.40625 98.246094 101.542969 99.621094 C 101.140625 100.433594 100.898438 100.960938 100.824219 101.203125 C 100.707031 101.46875 100.597656 101.871094 100.496094 102.417969 C 100.398438 102.980469 100.363281 103.511719 100.394531 104.015625 C 100.425781 104.523438 100.511719 105.046875 100.640625 105.582031 C 100.6875 105.746094 100.734375 105.910156 100.792969 106.0625 C 100.8125 106.148438 100.90625 106.367188 101.078125 106.722656 L 101.632812 106.761719 C 102.011719 105.996094 102.339844 105.214844 102.625 104.421875 C 102.765625 104.027344 102.894531 103.628906 103.015625 103.226562 L 103.183594 102.621094 C 103.289062 102.214844 103.382812 101.808594 103.464844 101.394531 C 103.519531 101.074219 103.558594 100.734375 103.582031 100.382812 C 103.605469 100.125 103.609375 99.660156 103.589844 98.992188 C 103.550781 98.566406 103.503906 98.234375 103.453125 97.996094 C 103.425781 97.878906 103.398438 97.785156 103.367188 97.714844 C 103.339844 97.640625 103.308594 97.59375 103.277344 97.570312 Z M 123.25 103.835938 C 123.238281 103.835938 123.222656 103.839844 123.210938 103.839844 L 122.929688 103.847656 C 122.359375 103.882812 121.773438 104.019531 121.171875 104.261719 C 120.5 104.539062 119.777344 104.941406 119.007812 105.472656 C 118.789062 105.628906 118.59375 105.785156 118.414062 105.941406 C 118.238281 106.097656 118.078125 106.253906 117.941406 106.410156 L 117.753906 106.640625 L 118.679688 106.765625 C 119.089844 106.761719 119.644531 106.621094 120.347656 106.34375 C 120.863281 106.160156 121.496094 105.847656 122.246094 105.394531 C 122.589844 105.191406 122.964844 104.816406 123.378906 104.277344 C 123.457031 104.15625 123.492188 104.054688 123.476562 103.984375 C 123.472656 103.949219 123.453125 103.917969 123.421875 103.894531 L 123.367188 103.863281 C 123.332031 103.847656 123.292969 103.835938 123.25 103.835938 Z M 93.253906 105.679688 L 93.148438 105.683594 C 92.878906 105.710938 92.75 105.84375 92.761719 106.085938 C 92.796875 106.265625 92.941406 106.609375 93.199219 107.117188 C 93.476562 107.621094 93.757812 108.046875 94.046875 108.394531 L 94.339844 108.707031 C 94.542969 108.910156 94.773438 109.101562 95.023438 109.277344 L 95.414062 109.53125 C 95.683594 109.691406 95.976562 109.84375 96.292969 109.980469 C 96.609375 110.117188 96.945312 110.238281 97.304688 110.347656 C 98.152344 110.589844 98.921875 110.707031 99.613281 110.707031 C 99.691406 110.707031 99.769531 110.707031 99.84375 110.703125 C 100.453125 110.679688 100.996094 110.554688 101.476562 110.335938 L 100.402344 108.800781 L 99.828125 108.261719 L 99.210938 107.769531 L 98.550781 107.332031 L 97.847656 106.941406 L 97.101562 106.601562 L 96.3125 106.308594 L 95.480469 106.066406 L 94.605469 105.875 L 93.53125 105.703125 C 93.429688 105.6875 93.335938 105.679688 93.253906 105.679688 Z M 114.113281 102.003906 L 114.085938 102.007812 C 114.011719 102.023438 113.941406 102.085938 113.867188 102.191406 C 113.679688 102.515625 113.523438 102.785156 113.402344 103.007812 C 113.21875 103.324219 113.058594 103.695312 112.929688 104.125 C 112.589844 105.152344 112.414062 106.125 112.402344 107.046875 L 112.410156 107.503906 C 112.433594 107.871094 112.457031 108.101562 112.480469 108.191406 C 112.554688 108.667969 112.675781 109.144531 112.835938 109.621094 C 113.382812 111.15625 113.847656 112.132812 114.230469 112.554688 L 115.050781 110.503906 C 115.132812 110.136719 115.214844 109.542969 115.296875 108.71875 C 115.335938 108.25 115.355469 107.785156 115.355469 107.332031 C 115.292969 105.816406 115.160156 104.636719 114.960938 103.789062 C 114.652344 102.636719 114.371094 102.039062 114.113281 102.003906 Z M 108.191406 103.71875 C 108.179688 103.71875 108.167969 103.722656 108.160156 103.722656 L 108.101562 103.730469 C 107.921875 103.800781 107.769531 103.9375 107.632812 104.136719 L 107.058594 104.910156 C 106.742188 105.347656 106.460938 105.769531 106.214844 106.183594 C 105.96875 106.59375 105.753906 106.992188 105.578125 107.378906 L 105.332031 107.945312 C 105.1875 108.320312 105.078125 108.679688 105 109.03125 C 104.644531 110.949219 104.972656 113.164062 105.976562 115.675781 L 106.832031 114.679688 C 107.085938 114.199219 107.320312 113.722656 107.527344 113.25 C 107.738281 112.773438 107.921875 112.300781 108.082031 111.828125 L 108.304688 111.125 C 108.441406 110.652344 108.554688 110.1875 108.644531 109.71875 C 108.734375 109.253906 108.796875 108.789062 108.839844 108.324219 C 108.859375 108.066406 108.871094 107.476562 108.867188 106.554688 C 108.859375 106.210938 108.84375 105.894531 108.816406 105.609375 C 108.789062 105.324219 108.753906 105.070312 108.707031 104.847656 L 108.632812 104.535156 L 108.480469 104.054688 C 108.375 103.832031 108.28125 103.71875 108.191406 103.71875 Z M 121.523438 109.554688 C 121.519531 109.554688 121.515625 109.554688 121.511719 109.554688 L 121.488281 109.554688 C 120.488281 109.722656 119.59375 110.042969 118.8125 110.515625 C 118.492188 110.695312 118.175781 110.894531 117.867188 111.121094 C 117.101562 111.714844 116.644531 112.097656 116.503906 112.265625 C 116.210938 112.554688 115.917969 112.863281 115.632812 113.191406 C 115.507812 113.3125 115.226562 113.726562 114.789062 114.429688 C 114.289062 115.292969 113.925781 116.230469 113.695312 117.242188 L 116.699219 115.957031 L 117.222656 115.828125 L 117.746094 115.613281 C 118.089844 115.441406 118.4375 115.214844 118.777344 114.933594 L 119.289062 114.464844 L 119.800781 113.914062 C 120.136719 113.519531 120.472656 113.066406 120.808594 112.5625 L 121.308594 111.757812 C 121.429688 111.53125 121.535156 111.316406 121.617188 111.121094 C 121.703125 110.929688 121.765625 110.75 121.8125 110.585938 C 121.890625 110.210938 121.917969 110.003906 121.886719 109.96875 C 121.855469 109.691406 121.734375 109.554688 121.523438 109.554688 Z M 98.5 114.417969 L 98.4375 114.417969 C 98.277344 114.4375 98.183594 114.53125 98.164062 114.699219 C 98.535156 115.910156 98.839844 116.722656 99.078125 117.140625 C 99.585938 118.164062 100.207031 118.996094 100.933594 119.640625 C 101.695312 120.316406 102.539062 120.785156 103.457031 121.042969 C 104.078125 121.222656 104.484375 121.316406 104.683594 121.324219 C 105.199219 121.371094 105.640625 121.394531 106.011719 121.394531 C 106.15625 121.394531 106.289062 121.390625 106.410156 121.382812 C 106.964844 121.34375 107.328125 121.28125 107.492188 121.199219 L 106.53125 119.535156 L 106.34375 119.257812 C 106.066406 118.878906 105.652344 118.457031 105.105469 117.992188 C 104.554688 117.53125 103.875 117.023438 103.058594 116.472656 C 102.910156 116.363281 102.453125 116.097656 101.683594 115.671875 C 100.21875 114.945312 99.15625 114.527344 98.5 114.417969 Z M 110.335938 109.640625 L 110.324219 109.640625 C 110.132812 109.929688 109.886719 110.429688 109.585938 111.140625 C 109.308594 111.800781 109.09375 112.40625 108.941406 112.949219 C 108.84375 113.3125 108.769531 113.683594 108.714844 114.066406 C 108.664062 114.445312 108.632812 114.835938 108.625 115.234375 L 108.628906 115.839844 C 108.714844 117.25 108.910156 118.367188 109.21875 119.1875 C 109.585938 120.242188 110.1875 121.472656 111.023438 122.878906 L 111.929688 120.011719 C 112.171875 118.527344 112.273438 117.222656 112.230469 116.089844 C 112.15625 114.816406 111.921875 113.492188 111.53125 112.121094 C 111.332031 111.394531 111.105469 110.785156 110.851562 110.300781 C 110.636719 109.859375 110.464844 109.640625 110.335938 109.640625 Z M 121.769531 120.558594 L 121.753906 120.558594 C 120.777344 120.730469 120.109375 120.859375 119.746094 120.953125 C 119.269531 121.070312 118.796875 121.214844 118.332031 121.386719 L 117.644531 121.664062 C 117.1875 121.863281 116.742188 122.085938 116.300781 122.335938 L 115.648438 122.730469 C 115.21875 123.007812 114.796875 123.308594 114.378906 123.640625 C 112.136719 125.449219 110.796875 127.351562 110.367188 129.347656 L 115.253906 128.09375 C 116.277344 127.6875 117.21875 127.15625 118.082031 126.503906 C 118.511719 126.175781 118.925781 125.820312 119.316406 125.429688 C 119.707031 125.039062 120.078125 124.621094 120.429688 124.167969 L 120.945312 123.46875 C 121.414062 122.722656 121.730469 122.058594 121.894531 121.480469 C 121.941406 121.371094 121.984375 121.101562 122.019531 120.671875 C 122 120.605469 121.914062 120.566406 121.769531 120.558594 Z M 121.769531 120.558594 " fill-opacity="1" fill-rule="nonzero"/></svg>