<svg xmlns="http://www.w3.org/2000/svg" xmlns:xlink="http://www.w3.org/1999/xlink" width="500" zoomAndPan="magnify" viewBox="0 0 375 374.999991" height="500" preserveAspectRatio="xMidYMid meet" version="1.0"><defs><clipPath id="c1e0607652"><path d="M 152 222 L 287 222 L 287 287.0625 L 152 287.0625 Z M 152 222 " clip-rule="nonzero"/></clipPath><clipPath id="faf33af814"><path d="M 249 88.3125 L 337.5 88.3125 L 337.5 221 L 249 221 Z M 249 88.3125 " clip-rule="nonzero"/></clipPath></defs><g clip-path="url(#c1e0607652)"><path fill="#000000" d="M 219.792969 222.351562 C 194.882812 222.351562 152.898438 226.746094 152.898438 243.152344 L 152.898438 266.261719 C 152.898438 282.671875 194.882812 287.0625 219.792969 287.0625 C 244.707031 287.0625 286.6875 282.671875 286.6875 266.261719 L 286.6875 243.152344 C 286.6875 226.746094 244.707031 222.351562 219.792969 222.351562 Z M 177.351562 250.316406 C 165.585938 247.3125 162.355469 244.078125 162.125 243.382812 C 163.050781 239.453125 184.5 231.828125 219.792969 231.828125 C 223.023438 231.828125 225.789062 231.828125 228.789062 232.058594 L 189.808594 252.859375 C 185.425781 251.933594 181.273438 251.242188 177.351562 250.316406 Z M 219.792969 254.707031 C 215.179688 254.707031 210.796875 254.476562 206.414062 254.246094 L 245.859375 233.214844 C 265.234375 235.527344 276.769531 240.378906 277.460938 243.152344 C 276.308594 247.082031 255.085938 254.707031 219.792969 254.707031 Z M 219.792969 254.707031 " fill-opacity="1" fill-rule="nonzero"/></g><g clip-path="url(#faf33af814)"><path fill="#000000" d="M 314.367188 123.441406 L 314.367188 116.046875 C 319.441406 116.046875 323.59375 111.886719 323.59375 106.800781 L 323.59375 97.558594 C 323.59375 92.472656 319.441406 88.3125 314.367188 88.3125 L 272.847656 88.3125 C 267.773438 88.3125 263.621094 92.472656 263.621094 97.558594 L 263.621094 106.800781 C 263.621094 111.886719 267.773438 116.046875 272.847656 116.046875 L 272.847656 123.441406 C 259.699219 125.984375 249.78125 137.769531 249.78125 151.636719 L 249.78125 201.554688 C 249.78125 211.722656 258.085938 220.042969 268.234375 220.042969 L 318.980469 220.042969 C 329.128906 220.042969 337.433594 211.722656 337.433594 201.554688 L 337.433594 151.636719 C 337.433594 137.769531 327.515625 126.214844 314.367188 123.441406 Z M 282.074219 116.046875 L 305.140625 116.046875 L 305.140625 122.976562 L 282.074219 122.976562 Z M 278.382812 132.222656 L 308.832031 132.222656 C 315.75 132.222656 321.980469 135.921875 325.441406 141.464844 L 262.007812 141.464844 C 265.464844 135.921875 271.464844 132.222656 278.382812 132.222656 Z M 284.378906 176.132812 C 281.84375 176.132812 279.765625 174.050781 279.765625 171.511719 C 279.765625 168.96875 281.84375 166.886719 284.378906 166.886719 L 288.996094 166.886719 L 288.996094 162.265625 C 288.996094 159.722656 291.070312 157.644531 293.609375 157.644531 C 296.144531 157.644531 298.222656 159.722656 298.222656 162.265625 L 298.222656 166.886719 L 302.835938 166.886719 C 305.371094 166.886719 307.449219 168.96875 307.449219 171.511719 C 307.449219 174.050781 305.371094 176.132812 302.835938 176.132812 L 298.222656 176.132812 L 298.222656 180.753906 C 298.222656 183.296875 296.144531 185.375 293.609375 185.375 C 291.070312 185.375 288.996094 183.296875 288.996094 180.753906 L 288.996094 176.132812 Z M 318.980469 210.796875 L 268.234375 210.796875 C 263.851562 210.796875 260.390625 207.792969 259.238281 203.863281 L 327.746094 203.863281 C 326.824219 207.792969 323.363281 210.796875 318.980469 210.796875 Z M 318.980469 210.796875 " fill-opacity="1" fill-rule="nonzero"/></g><path fill="#000000" d="M 199.265625 114.660156 C 180.578125 95.9375 150.363281 95.9375 131.679688 114.660156 L 56.25 190.460938 C 37.566406 209.179688 37.566406 239.453125 56.25 258.175781 C 65.476562 267.417969 77.703125 272.273438 89.925781 272.273438 C 102.152344 272.273438 114.378906 267.648438 123.605469 258.175781 L 145.519531 236.21875 L 199.265625 182.371094 C 217.949219 163.652344 217.949219 133.378906 199.265625 114.660156 Z M 70.78125 215.882812 C 69.859375 220.273438 69.628906 224.894531 70.089844 229.515625 C 70.320312 232.058594 68.707031 234.371094 66.167969 234.601562 C 65.9375 234.601562 65.707031 234.601562 65.476562 234.601562 C 63.167969 234.601562 61.324219 232.984375 60.863281 230.671875 C 60.171875 225.125 60.402344 219.347656 61.554688 213.800781 C 62.015625 211.261719 64.554688 209.640625 67.089844 210.335938 C 69.859375 210.796875 71.242188 213.339844 70.78125 215.882812 Z M 142.058594 165.5 C 138.136719 162.265625 133.984375 159.953125 129.601562 158.105469 L 146.441406 140.542969 C 148.285156 138.691406 148.054688 135.6875 146.210938 134.070312 C 144.363281 132.222656 141.367188 132.453125 139.75 134.300781 L 119.683594 155.332031 C 114.609375 154.410156 109.535156 154.410156 104.460938 155.332031 L 121.988281 137.769531 C 129.371094 130.375 138.828125 126.445312 149.210938 126.445312 C 157.972656 126.445312 166.277344 129.449219 172.96875 134.765625 Z M 158.898438 209.875 C 160.972656 196.699219 157.511719 182.835938 148.746094 172.203125 L 183.117188 137.769531 C 184.960938 135.921875 184.960938 133.148438 183.117188 131.296875 C 174.121094 122.285156 162.125 117.199219 149.441406 117.199219 C 147.132812 117.199219 145.058594 117.433594 142.980469 117.664062 C 149.671875 112.578125 157.742188 110.035156 165.816406 110.035156 C 175.734375 110.035156 185.65625 113.734375 193.035156 121.359375 C 208.03125 136.382812 208.03125 160.878906 193.035156 175.902344 Z M 158.898438 209.875 " fill-opacity="1" fill-rule="nonzero"/></svg>