<svg xmlns="http://www.w3.org/2000/svg" xmlns:xlink="http://www.w3.org/1999/xlink" width="500" zoomAndPan="magnify" viewBox="0 0 375 374.999991" height="500" preserveAspectRatio="xMidYMid meet" version="1.0"><defs><clipPath id="437612f741"><path d="M 37.5 271 L 337.5 271 L 337.5 281.25 L 37.5 281.25 Z M 37.5 271 " clip-rule="nonzero"/></clipPath><clipPath id="efb0e1b033"><path d="M 51 93.75 L 324 93.75 L 324 263 L 51 263 Z M 51 93.75 " clip-rule="nonzero"/></clipPath></defs><g clip-path="url(#437612f741)"><path fill="#000000" d="M 332.8125 271.875 L 42.1875 271.875 C 39.609375 271.875 37.5 273.984375 37.5 276.5625 C 37.5 279.140625 39.609375 281.25 42.1875 281.25 L 332.8125 281.25 C 335.390625 281.25 337.5 279.140625 337.5 276.5625 C 337.5 273.984375 335.390625 271.875 332.8125 271.875 Z M 332.8125 271.875 " fill-opacity="1" fill-rule="nonzero"/></g><path fill="#000000" d="M 180.46875 154.6875 C 177.890625 154.6875 175.78125 156.796875 175.78125 159.375 C 175.78125 161.953125 177.890625 164.0625 180.46875 164.0625 L 194.53125 164.0625 C 197.109375 164.0625 199.21875 161.953125 199.21875 159.375 C 199.21875 156.796875 197.109375 154.6875 194.53125 154.6875 Z M 180.46875 154.6875 " fill-opacity="1" fill-rule="nonzero"/><g clip-path="url(#efb0e1b033)"><path fill="#000000" d="M 65.625 262.5 L 131.25 262.5 C 129.140625 259.6875 127.734375 256.640625 127.03125 253.125 L 65.625 253.125 C 63.046875 253.125 60.9375 251.015625 60.9375 248.4375 L 60.9375 107.8125 C 60.9375 105.234375 63.046875 103.125 65.625 103.125 L 309.375 103.125 C 311.953125 103.125 314.0625 105.234375 314.0625 107.8125 L 314.0625 248.4375 C 314.0625 251.015625 311.953125 253.125 309.375 253.125 L 271.40625 253.125 C 270.703125 256.640625 269.296875 259.6875 267.1875 262.5 L 309.375 262.5 C 317.109375 262.5 323.4375 256.171875 323.4375 248.4375 L 323.4375 107.8125 C 323.4375 100.078125 317.109375 93.75 309.375 93.75 L 65.625 93.75 C 57.890625 93.75 51.5625 100.078125 51.5625 107.8125 L 51.5625 248.4375 C 51.5625 256.171875 57.890625 262.5 65.625 262.5 Z M 65.625 262.5 " fill-opacity="1" fill-rule="nonzero"/></g><path fill="#000000" d="M 229.6875 150 L 229.6875 168.75 L 239.0625 168.75 L 239.0625 150 C 239.0625 142.265625 232.734375 135.9375 225 135.9375 L 150 135.9375 C 142.265625 135.9375 135.9375 142.265625 135.9375 150 L 135.9375 248.4375 C 135.9375 256.171875 142.265625 262.5 150 262.5 L 201.5625 262.5 C 199.453125 259.6875 198.046875 256.640625 197.34375 253.125 L 150 253.125 C 147.421875 253.125 145.3125 251.015625 145.3125 248.4375 L 145.3125 150 C 145.3125 147.421875 147.421875 145.3125 150 145.3125 L 225 145.3125 C 227.578125 145.3125 229.6875 147.421875 229.6875 150 Z M 229.6875 150 " fill-opacity="1" fill-rule="nonzero"/><path fill="#000000" d="M 215.625 262.5 L 253.125 262.5 C 258.28125 262.5 262.5 258.28125 262.5 253.125 L 262.5 187.5 C 262.5 182.34375 258.28125 178.125 253.125 178.125 L 215.625 178.125 C 210.46875 178.125 206.25 182.34375 206.25 187.5 L 206.25 253.125 C 206.25 258.28125 210.46875 262.5 215.625 262.5 Z M 215.625 187.5 L 253.125 187.5 L 253.125 253.125 L 215.625 253.125 Z M 215.625 187.5 " fill-opacity="1" fill-rule="nonzero"/><path fill="#000000" d="M 236.71875 239.0625 L 232.03125 239.0625 C 229.453125 239.0625 227.34375 241.171875 227.34375 243.75 C 227.34375 246.328125 229.453125 248.4375 232.03125 248.4375 L 236.71875 248.4375 C 239.296875 248.4375 241.40625 246.328125 241.40625 243.75 C 241.40625 241.171875 239.296875 239.0625 236.71875 239.0625 Z M 236.71875 239.0625 " fill-opacity="1" fill-rule="nonzero"/><path fill="#000000" d="M 192.1875 112.5 C 192.1875 112.808594 192.15625 113.113281 192.097656 113.414062 C 192.039062 113.714844 191.949219 114.007812 191.832031 114.292969 C 191.710938 114.578125 191.570312 114.847656 191.398438 115.105469 C 191.226562 115.359375 191.03125 115.597656 190.816406 115.816406 C 190.597656 116.03125 190.359375 116.226562 190.105469 116.398438 C 189.847656 116.570312 189.578125 116.710938 189.292969 116.832031 C 189.007812 116.949219 188.714844 117.039062 188.414062 117.097656 C 188.113281 117.15625 187.808594 117.1875 187.5 117.1875 C 187.191406 117.1875 186.886719 117.15625 186.585938 117.097656 C 186.285156 117.039062 185.992188 116.949219 185.707031 116.832031 C 185.421875 116.710938 185.152344 116.570312 184.894531 116.398438 C 184.640625 116.226562 184.402344 116.03125 184.183594 115.816406 C 183.96875 115.597656 183.773438 115.359375 183.601562 115.105469 C 183.429688 114.847656 183.285156 114.578125 183.167969 114.292969 C 183.050781 114.007812 182.960938 113.714844 182.902344 113.414062 C 182.84375 113.113281 182.8125 112.808594 182.8125 112.5 C 182.8125 112.191406 182.84375 111.886719 182.902344 111.585938 C 182.960938 111.285156 183.050781 110.992188 183.167969 110.707031 C 183.285156 110.421875 183.429688 110.152344 183.601562 109.894531 C 183.773438 109.640625 183.96875 109.402344 184.183594 109.183594 C 184.402344 108.96875 184.640625 108.773438 184.894531 108.601562 C 185.152344 108.429688 185.421875 108.285156 185.707031 108.167969 C 185.992188 108.050781 186.285156 107.960938 186.585938 107.902344 C 186.886719 107.84375 187.191406 107.8125 187.5 107.8125 C 187.808594 107.8125 188.113281 107.84375 188.414062 107.902344 C 188.714844 107.960938 189.007812 108.050781 189.292969 108.167969 C 189.578125 108.285156 189.847656 108.429688 190.105469 108.601562 C 190.359375 108.773438 190.597656 108.96875 190.816406 109.183594 C 191.03125 109.402344 191.226562 109.640625 191.398438 109.894531 C 191.570312 110.152344 191.710938 110.421875 191.832031 110.707031 C 191.949219 110.992188 192.039062 111.285156 192.097656 111.585938 C 192.15625 111.886719 192.1875 112.191406 192.1875 112.5 Z M 192.1875 112.5 " fill-opacity="1" fill-rule="nonzero"/></svg>