<svg xmlns="http://www.w3.org/2000/svg" xmlns:xlink="http://www.w3.org/1999/xlink" width="1640" zoomAndPan="magnify" viewBox="0 0 1230 693.000001" height="924" preserveAspectRatio="xMidYMid meet" version="1.0"><defs><g/><clipPath id="07ec333b55"><path d="M 22.398438 184.582031 L 1208 184.582031 L 1208 511 L 22.398438 511 Z M 22.398438 184.582031 " clip-rule="nonzero"/></clipPath><clipPath id="da9529f54a"><path d="M 22.402344 184.582031 L 1207.933594 184.582031 L 1207.933594 511.109375 L 22.402344 511.109375 Z M 22.402344 184.582031 " clip-rule="nonzero"/></clipPath><clipPath id="eb6dde90a1"><path d="M 54.429688 215.265625 L 567.46875 215.265625 L 567.46875 480.4375 L 54.429688 480.4375 Z M 54.429688 215.265625 " clip-rule="nonzero"/></clipPath></defs><g clip-path="url(#07ec333b55)"><path fill="#ffffff" d="M 22.398438 184.582031 L 1207.796875 184.582031 L 1207.796875 510.910156 L 22.398438 510.910156 Z M 22.398438 184.582031 " fill-opacity="1" fill-rule="nonzero"/></g><g clip-path="url(#da9529f54a)"><path stroke-linecap="butt" transform="matrix(0.748838, 0, 0, 0.748892, 22.402129, 184.580479)" fill="none" stroke-linejoin="miter" d="M 0.000286846 0.0020721 L 1583.161542 0.0020721 L 1583.161542 436.015719 L 0.000286846 436.015719 L 0.000286846 0.0020721 " stroke="#000000" stroke-width="6" stroke-opacity="1" stroke-miterlimit="4"/></g><g fill="#000000" fill-opacity="1"><g transform="translate(591.352435, 405.620872)"><g><path d="M 0.90625 0 L 39.6875 0 L 46.574219 -17.941406 L 89.886719 -17.941406 L 96.773438 0 L 135.738281 0 L 86.445312 -126.855469 L 50.199219 -126.855469 Z M 54.1875 -44.761719 L 68.320312 -84.085938 L 82.457031 -44.761719 Z M 54.1875 -44.761719 "/></g></g></g><g fill="#000000" fill-opacity="1"><g transform="translate(727.990003, 405.620872)"><g><path d="M 6.523438 0 L 107.101562 0 L 107.101562 -32.257812 L 53.097656 -32.257812 L 105.835938 -100.578125 L 105.835938 -126.855469 L 8.515625 -126.855469 L 8.515625 -94.597656 L 59.261719 -94.597656 L 6.523438 -26.277344 Z M 6.523438 0 "/></g></g></g><g fill="#000000" fill-opacity="1"><g transform="translate(841.794244, 405.620872)"><g><path d="M 75.207031 2.71875 C 115.621094 2.71875 144.253906 -24.644531 144.253906 -63.429688 C 144.253906 -102.210938 115.621094 -129.574219 75.207031 -129.574219 C 34.796875 -129.574219 6.160156 -102.210938 6.160156 -63.429688 C 6.160156 -24.644531 34.796875 2.71875 75.207031 2.71875 Z M 43.3125 -63.429688 C 43.3125 -82.457031 56.542969 -95.6875 75.207031 -95.6875 C 94.054688 -95.6875 107.101562 -82.457031 107.101562 -63.429688 C 107.101562 -44.398438 94.054688 -31.171875 75.207031 -31.171875 C 56.542969 -31.171875 43.3125 -44.398438 43.3125 -63.429688 Z M 43.3125 -63.429688 "/></g></g></g><g fill="#000000" fill-opacity="1"><g transform="translate(992.385533, 405.620872)"><g><path d="M 13.410156 0 L 49.65625 0 L 49.65625 -64.695312 L 97.859375 0 L 127.582031 0 L 127.582031 -126.855469 L 91.519531 -126.855469 L 91.519531 -62.523438 L 43.3125 -126.855469 L 13.410156 -126.855469 Z M 13.410156 0 "/></g></g></g><g clip-path="url(#eb6dde90a1)"><path fill="#000000" d="M 54.429688 215.265625 L 567.660156 215.265625 L 567.660156 480.339844 L 54.429688 480.339844 Z M 54.429688 215.265625 " fill-opacity="1" fill-rule="nonzero"/></g><g fill="#ffffff" fill-opacity="1"><g transform="translate(107.421263, 405.620872)"><g><path d="M 60.710938 2.355469 C 88.4375 2.355469 106.378906 -11.234375 106.378906 -33.34375 C 106.378906 -52.011719 93.875 -63.246094 61.433594 -71.222656 C 36.789062 -77.203125 28.632812 -83.726562 28.632812 -94.234375 C 28.632812 -106.378906 39.507812 -113.988281 57.628906 -113.988281 C 76.296875 -113.988281 87.894531 -104.566406 88.257812 -89.34375 L 104.023438 -89.34375 C 103.839844 -113.988281 86.082031 -129.210938 57.628906 -129.210938 C 29.902344 -129.210938 12.324219 -115.621094 12.324219 -94.234375 C 12.324219 -74.664062 26.277344 -63.789062 57.449219 -56.359375 C 80.28125 -50.925781 89.886719 -44.582031 89.886719 -32.800781 C 89.886719 -20.296875 78.652344 -12.867188 60.710938 -12.867188 C 40.957031 -12.867188 27.183594 -22.652344 26.820312 -38.964844 L 10.875 -38.964844 C 11.054688 -14.136719 30.445312 2.355469 60.710938 2.355469 Z M 60.710938 2.355469 "/></g></g></g><g fill="#ffffff" fill-opacity="1"><g transform="translate(238.442459, 405.620872)"><g><path d="M 3.082031 0 L 20.117188 0 L 31.714844 -28.816406 L 93.511719 -28.816406 L 105.472656 0 L 122.324219 0 L 70.132812 -126.855469 L 55.273438 -126.855469 Z M 37.875 -43.675781 L 62.703125 -104.566406 L 87.53125 -43.675781 Z M 37.875 -43.675781 "/></g></g></g><g fill="#ffffff" fill-opacity="1"><g transform="translate(377.618429, 405.620872)"><g><path d="M 18.484375 0 L 34.433594 0 L 34.433594 -97.136719 L 76.476562 -33.707031 L 89.523438 -33.707031 L 131.570312 -96.953125 L 131.570312 0 L 147.515625 0 L 147.515625 -126.855469 L 132.65625 -126.855469 L 83.183594 -51.648438 L 33.34375 -126.855469 L 18.484375 -126.855469 Z M 18.484375 0 "/></g></g></g></svg>